<svg width="24" height="24" viewBox="0 0 24 24" fill="none" xmlns="http://www.w3.org/2000/svg">
<path fill-rule="evenodd" clip-rule="evenodd" d="M8.12 2.9216C8.05278 2.911 7.98445 2.90939 7.9168 2.9168C6.5712 3.0624 4.5232 3.7888 3.3136 4.4448C3.23371 4.48837 3.1622 4.5458 3.1024 4.6144C2.6 5.1888 2.144 6.1248 1.7872 7.0112C1.4192 7.92 1.1152 8.88 0.944001 9.5744C0.377601 11.8304 0.0688016 14.5392 0.0272016 17.1088C0.0258781 17.237 0.0566815 17.3635 0.116802 17.4768C0.596802 18.3936 1.632 19.2432 2.6688 19.864C3.7168 20.4928 4.9408 20.9888 5.9264 21.0848C6.04449 21.0961 6.16358 21.0798 6.27435 21.0374C6.38511 20.9949 6.48453 20.9273 6.5648 20.84C6.8112 20.5728 7.2304 19.9488 7.5472 19.464C7.6912 19.2432 7.8272 19.032 7.9328 18.864C8.992 19.056 10.32 19.168 12 19.168C13.6768 19.168 15.0048 19.056 16.064 18.864C16.1696 19.0336 16.304 19.2432 16.448 19.4624C16.7648 19.9488 17.184 20.5728 17.432 20.84C17.5123 20.9273 17.6117 20.9949 17.7225 21.0374C17.8332 21.0798 17.9523 21.0961 18.0704 21.0848C19.056 20.9888 20.2784 20.4928 21.3264 19.864C22.3632 19.2432 23.3984 18.3936 23.88 17.4768C23.9396 17.3634 23.9698 17.2369 23.968 17.1088C23.928 14.5392 23.6176 11.8288 23.0544 9.5728C22.8281 8.70149 22.5454 7.84582 22.208 7.0112C21.8512 6.1248 21.3952 5.1872 20.8944 4.6144C20.8341 4.54565 20.7621 4.48821 20.6816 4.4448C19.4736 3.7888 17.4256 3.0624 16.08 2.9168C16.0124 2.90939 15.944 2.911 15.8768 2.9216C15.5753 2.97963 15.2924 3.11034 15.0528 3.3024C14.5161 3.73445 14.0822 4.28042 13.7824 4.9008C13.1894 4.85429 12.5948 4.83133 12 4.832C11.3568 4.832 10.7616 4.856 10.2128 4.8992C9.91284 4.2794 9.47892 3.73399 8.9424 3.3024C8.70325 3.11058 8.42099 2.97988 8.12 2.9216ZM17.6288 18.4608C17.854 18.8076 18.0849 19.1506 18.3216 19.4896C18.9552 19.3456 19.7632 19.0096 20.5376 18.5456C21.4064 18.0256 22.096 17.4256 22.4288 16.9184C22.376 14.5088 22.0784 12.0064 21.5648 9.9456C21.3556 9.14295 21.0948 8.35464 20.784 7.5856C20.464 6.7888 20.12 6.1136 19.8208 5.7264C18.7808 5.1872 17.1408 4.6176 16.072 4.4624C16.0398 4.4819 16.0089 4.50327 15.9792 4.5264C15.8466 4.6307 15.7254 4.74868 15.6176 4.8784C15.5545 4.95351 15.4942 5.03089 15.4368 5.1104C15.9248 5.2 16.36 5.3072 16.7456 5.4256C17.84 5.7616 18.6288 6.2256 19.0144 6.7392C19.1366 6.90215 19.1891 7.10697 19.1603 7.30861C19.1315 7.51025 19.0238 7.69219 18.8608 7.8144C18.7801 7.87491 18.6883 7.91894 18.5906 7.94397C18.4929 7.969 18.3912 7.97454 18.2914 7.96028C18.0898 7.93147 17.9078 7.82375 17.7856 7.6608C17.6912 7.536 17.28 7.1968 16.2944 6.8928C15.3424 6.6016 13.9424 6.368 12 6.368C10.0576 6.368 8.656 6.6016 7.7056 6.8944C6.72 7.1984 6.3088 7.5344 6.2144 7.6608C6.15389 7.74148 6.07808 7.80946 5.99129 7.86084C5.90451 7.91223 5.80845 7.94602 5.70861 7.96028C5.50697 7.98908 5.30215 7.93661 5.1392 7.8144C5.05852 7.75388 4.99054 7.67807 4.93916 7.59129C4.88777 7.50451 4.85398 7.40845 4.83972 7.30861C4.81091 7.10697 4.86339 6.90215 4.9856 6.7392C5.3712 6.224 6.16 5.7632 7.2544 5.4272C7.6384 5.3072 8.0736 5.2016 8.56 5.112C8.50249 5.03162 8.44164 4.95368 8.3776 4.8784C8.27028 4.74877 8.14961 4.63078 8.0176 4.5264C7.98742 4.50322 7.9559 4.48185 7.9232 4.4624C6.856 4.6176 5.216 5.1872 4.176 5.7264C3.8752 6.1152 3.5328 6.7888 3.2112 7.5856C2.8704 8.4336 2.5872 9.3248 2.432 9.9456C1.9168 12.0064 1.6192 14.5088 1.568 16.9184C1.9008 17.4272 2.5888 18.0256 3.4576 18.5472C4.2336 19.0112 5.04 19.3472 5.6752 19.4896C5.91425 19.1522 6.14525 18.8092 6.368 18.4608C5.112 18.0144 4.4384 17.4016 4 16.7456C3.94411 16.6615 3.90532 16.5673 3.88585 16.4683C3.86638 16.3692 3.8666 16.2673 3.88651 16.1684C3.90642 16.0694 3.94562 15.9754 4.00188 15.8916C4.05814 15.8078 4.13036 15.7359 4.2144 15.68C4.29845 15.6241 4.39268 15.5853 4.49172 15.5658C4.59075 15.5464 4.69266 15.5466 4.79161 15.5665C4.89056 15.5864 4.98462 15.6256 5.06841 15.6819C5.15221 15.7381 5.22411 15.8104 5.28 15.8944C5.696 16.5216 6.7904 17.632 12 17.632C17.2112 17.632 18.304 16.5216 18.72 15.8944C18.8329 15.7247 19.0086 15.6067 19.2084 15.5665C19.4082 15.5263 19.6159 15.5671 19.7856 15.68C19.9553 15.7929 20.0733 15.9686 20.1135 16.1684C20.1537 16.3682 20.1129 16.5759 20 16.7456C19.5616 17.4016 18.8864 18.016 17.6288 18.4608ZM6.528 11.2192C6.9184 10.8 7.448 10.5632 8 10.56C8.552 10.5632 9.0816 10.8 9.472 11.2192C9.8608 11.64 10.08 12.208 10.08 12.8C10.08 13.392 9.8608 13.96 9.472 14.3808C9.0816 14.8 8.552 15.0368 8 15.04C7.72253 15.0371 7.44864 14.977 7.19538 14.8636C6.94213 14.7502 6.71495 14.5859 6.528 14.3808C6.13377 13.9491 5.91669 13.3846 5.92 12.8C5.92 12.208 6.1392 11.64 6.528 11.2192ZM16 10.56C15.448 10.5632 14.9184 10.8 14.528 11.2192C14.1392 11.64 13.92 12.208 13.92 12.8C13.92 13.392 14.1392 13.96 14.528 14.3808C14.9184 14.8 15.448 15.0368 16 15.04C16.552 15.0368 17.0816 14.8 17.472 14.3808C17.8608 13.96 18.08 13.392 18.08 12.8C18.08 12.208 17.8608 11.64 17.472 11.2192C17.285 11.0141 17.0579 10.8498 16.8046 10.7364C16.5514 10.623 16.2775 10.5629 16 10.56Z" fill="#958CF8"/>
</svg>
