<svg width="236" height="74" viewBox="0 0 236 74" fill="none" xmlns="http://www.w3.org/2000/svg">
<path d="M83.3691 53.3699V49.7299H100.673C102.316 49.7299 103.137 48.9273 103.137 47.3219V43.0659C103.137 41.6473 102.502 40.8073 101.233 40.5459L89.8651 38.2499C85.5344 37.3913 83.3691 34.4793 83.3691 29.5139V26.4339C83.3691 20.3486 86.4117 17.3059 92.4971 17.3059H105.545L108.849 19.8819V23.5219H92.6651C91.0224 23.5219 90.2011 24.3246 90.2011 25.9299V29.6819C90.2011 31.1006 90.8357 31.9406 92.1051 32.2019L103.473 34.4419C107.804 35.3379 109.969 38.2499 109.969 43.1779V46.8179C109.969 52.9033 106.926 55.9459 100.841 55.9459H86.6731L83.3691 53.3699ZM114.111 54.6019L126.039 17.3059H136.679L148.551 54.6019L147.711 55.9459H141.943L139.311 47.4339H123.351L120.663 55.9459H115.007L114.111 54.6019ZM125.255 41.2179H137.463L131.863 23.5219H130.799L125.255 41.2179ZM154.393 55.9459V17.3059H162.793L174.385 42.0579L185.977 17.3059H194.377V55.9459H187.489V28.9539L177.297 50.6819H171.417L161.225 28.9539V55.9459H154.393ZM200.189 54.6019L212.117 17.3059H222.757L234.629 54.6019L233.789 55.9459H228.021L225.389 47.4339H209.429L206.741 55.9459H201.085L200.189 54.6019ZM211.333 41.2179H223.541L217.941 23.5219H216.877L211.333 41.2179Z" fill="white"/>
<g clip-path="url(#clip0_3088_493)">
<path d="M71.9999 36.1777C71.9999 34.0686 71.8334 32.0012 71.5158 29.9898C71.5149 29.9794 71.5149 29.968 71.513 29.9575C71.5082 29.9282 71.5024 29.8988 71.4976 29.8694C71.2317 28.2172 70.8643 26.6039 70.4004 25.037C70.2062 24.3583 69.9976 23.6824 69.7699 23.0123C68.4583 19.1486 66.4637 15.6556 63.9381 12.4536C59.7987 7.20502 54.6251 3.37075 48.2183 1.23607C47.7505 1.08061 47.2808 0.942216 46.8073 0.819937C45.1895 0.303329 43.2274 0 41.1123 0C40.0351 0 38.9981 0.078676 38.0251 0.224653C37.124 0.315652 36.2333 0.483431 35.3532 0.707136C33.1203 1.27398 30.9994 2.0797 29.2038 3.57928C28.5781 4.10158 28.1084 4.76132 27.5363 5.32817C26.4257 6.42963 25.05 7.18227 23.8015 8.10363C23.2467 8.51217 22.6813 8.91219 22.2192 9.41553C21.5955 9.88664 21.2013 10.5748 21.2013 11.3407C21.2013 11.735 21.3056 12.1085 21.4922 12.4431C21.6845 12.8413 22.0021 13.1749 22.3044 13.5323C22.115 13.574 21.9935 13.5948 21.871 13.6128C21.7954 13.629 21.739 13.6375 21.6979 13.647C21.0999 13.7844 20.6608 13.8508 20.061 13.9778C19.9787 13.9949 19.9539 14.0005 19.7931 14.0451C19.753 14.0555 19.7157 14.0659 19.686 14.0735C13.8102 15.6072 8.95517 18.7164 5.41745 23.6094C2.06723 28.2447 0.406472 33.5245 0.0601615 39.2167C-0.147433 42.6272 0.176874 45.9724 1.11631 49.2635C2.58957 54.4286 4.99556 59.0753 8.74949 62.9958C13.0908 67.5296 18.3448 70.5828 24.3239 72.454C27.0044 73.2929 29.7797 73.6578 32.5731 73.8654C33.1433 73.9081 33.7144 73.9384 34.2856 73.9545C36.0142 74.0597 37.985 73.9829 40.0561 73.6938C41.7035 73.4644 43.2523 73.1232 44.6385 72.7052C45.2871 72.527 45.929 72.3241 46.5633 72.0985C57.2396 68.2889 64.824 61.2251 69.2237 50.8474C70.3468 48.1971 71.1351 45.4453 71.5101 42.5865C71.5024 42.5694 71.4957 42.5533 71.489 42.5372C71.7024 41.2243 71.8507 39.8868 71.9301 38.5285C71.9865 37.9218 72.0056 37.3152 71.9951 36.7066C71.997 36.5303 71.9989 36.354 71.9989 36.1777H71.9999ZM35.9186 8.55578C35.5837 8.67048 35.2001 8.72356 34.7467 8.71597C34.165 8.71597 33.7317 8.4553 33.4791 7.82874C33.4427 7.73774 33.415 7.64579 33.394 7.55195C34.1076 7.94817 34.961 8.28752 35.9186 8.55578ZM62.8944 36.0137C62.7155 39.4271 62.1683 42.7656 60.6463 45.8814C60.0876 47.0236 59.5279 48.1649 58.9635 49.3043C58.8927 49.2464 58.8267 49.2389 58.777 49.3261C58.2508 50.2361 58.0021 50.8531 57.4338 51.6968C57.3812 51.7679 57.32 51.8494 57.2521 51.9404C56.194 53.3499 55.3473 54.4239 55.2268 54.5746C52.4315 58.0743 48.9731 59.8468 48.9731 59.8468C46.7642 61.1758 44.3458 62.1683 41.7178 62.8242C41.6585 62.8394 41.603 62.8716 41.5466 62.8963C41.6403 63.0783 41.472 63.011 41.4127 63.0252C39.5194 63.4802 37.631 63.9408 35.6756 64.0783C34.5993 64.1541 33.526 64.2773 32.4459 64.2442C29.9175 64.1664 27.4282 63.8347 24.9964 63.119C21.9495 62.2223 19.1321 60.8696 16.6142 58.9397C14.2866 57.1557 12.4001 54.9841 10.945 52.4485C9.55978 50.0351 8.81454 47.4132 8.40605 44.687C8.30655 44.0206 8.2635 43.3448 8.19845 42.6737C8.18793 42.5666 8.17358 42.45 8.27785 42.3685C8.11714 41.3239 7.9325 40.2821 7.88754 39.2233C7.89232 38.3522 7.89232 38.4773 7.89232 38.3522C7.89232 37.445 7.86649 37.3152 7.86745 36.408C7.86745 36.2839 7.86171 36.1739 7.88275 35.9265C8.16114 32.0278 9.21729 28.3556 11.3879 25.0777C14.2264 20.7904 17.876 17.3637 22.6153 15.1703C22.775 15.0963 22.9252 15.0338 23.1348 14.9352C23.2687 14.8764 23.2352 14.8944 23.3605 14.8394C23.4198 14.8138 23.4284 14.8091 23.4878 14.7797C23.5289 14.7532 23.5174 14.7627 23.5528 14.7314C23.6351 14.6584 23.6188 14.6745 23.6915 14.5968L23.6944 14.5949C23.6944 14.5949 23.6944 14.5949 23.6934 14.5949C23.7087 14.5797 23.7241 14.5645 23.7384 14.5503C23.769 14.52 23.7795 14.4754 23.7661 14.4347C23.7059 14.2527 23.6628 14.2205 23.2515 13.9143C23.9039 14.0555 24.4205 14.1949 24.9543 14.2479C25.8268 14.3351 26.6926 14.3039 27.566 14.2565C28.8049 14.1901 30.0485 14.1285 31.2836 14.429C30.5728 14.5769 29.8601 14.72 29.1512 14.8764C28.9455 14.9219 28.7465 14.993 28.5533 15.0774C28.3849 15.1513 28.1591 15.2072 28.185 15.4518C28.2108 15.6973 28.4432 15.6736 28.6193 15.7343C28.8833 15.8253 28.2615 15.8755 28.8795 15.9257C29.5932 15.9826 30.6302 16.0272 31.229 15.9911C34.4539 15.7921 37.521 14.9636 40.4684 13.6745C40.5249 13.6498 40.5737 13.6328 40.6263 13.6005C40.7593 13.5256 40.6904 13.5664 40.8406 13.4906C41.118 13.374 41.0721 13.3797 41.3907 13.2725C42.3961 12.5872 43.3231 11.8109 44.2367 11.0052C45.3139 10.0544 46.6571 10.0705 47.9887 10.3833C49.461 10.7293 50.6817 11.5635 51.8756 12.4346C55.4947 15.0745 58.1274 18.505 60.0063 22.5156C61.27 25.2114 62.1147 28.038 62.5385 30.9898C62.7777 32.66 62.9843 34.3312 62.8954 36.0175L62.8944 36.0137Z" fill="#7277D4"/>
<path d="M41.3903 13.2697C41.3903 13.2697 41.3879 13.2708 41.3867 13.272L41.3903 13.2697Z" fill="#7277D4"/>
<path d="M23.7871 14.5032V14.4973C23.7871 14.4973 23.7871 14.4982 23.7861 14.4992C23.7861 14.5012 23.7861 14.5022 23.7871 14.5032Z" fill="#7277D4"/>
<path d="M58.4239 49.9659C58.6257 49.5858 58.6095 49.6237 58.6611 49.5318C60.2463 46.4615 61.2422 43.2206 61.5751 39.7845C62.2075 33.2525 60.8787 27.1812 57.0826 21.7497C54.2194 17.6528 50.4454 14.6954 45.5683 13.2356C44.4892 12.9124 43.4024 12.7531 42.2822 12.992C41.9751 13.0574 41.7283 13.1076 41.3887 13.2716C42.3951 12.5853 43.323 11.809 44.2366 11.0023C45.3138 10.0516 46.657 10.0677 47.9887 10.3805C49.461 10.7265 50.6816 11.5606 51.8756 12.4318C55.4946 15.0717 58.1273 18.5021 60.0062 22.5127C61.2699 25.2086 62.1147 28.0352 62.5385 30.987C62.7776 32.6572 62.9843 34.3284 62.8953 36.0147C62.7164 39.4281 62.1692 42.7666 60.6472 45.8824C60.0665 47.0701 59.4848 48.2578 58.8974 49.4417C58.8238 49.5906 58.6248 49.909 58.4239 49.9669V49.9659Z" fill="#5157AE"/>
<path d="M8.27615 42.3675C10.267 51.7878 15.9629 58.1093 24.8254 61.7768C25.8337 62.1938 26.8879 62.4811 27.9383 62.7787C29.2863 63.1607 30.6658 63.4072 32.0491 63.5569C33.4774 63.7114 34.9229 63.6612 36.3646 63.6375C38.1334 63.6091 39.8248 63.1816 41.5458 62.8962C41.6396 63.0782 41.4703 63.0109 41.4119 63.0252C39.5187 63.4802 37.6302 63.9408 35.6748 64.0783C34.5986 64.1541 33.5252 64.2773 32.4452 64.2442C29.9167 64.1664 27.4275 63.8347 24.9957 63.119C21.9487 62.2223 19.1313 60.8696 16.6134 58.9397C14.2859 57.1557 12.3993 54.9841 10.9443 52.4484C9.55902 50.0351 8.81379 47.4132 8.40529 44.687C8.3058 44.0206 8.26275 43.3448 8.1977 42.6727C8.18718 42.5656 8.17283 42.449 8.2771 42.3675H8.27615Z" fill="#5157AE"/>
<path d="M34.7479 8.71599C34.1662 8.71599 33.7329 8.45531 33.4803 7.82875C33.2144 7.16901 33.3627 6.41258 33.9338 5.93199C34.5977 5.37368 35.3448 5.01442 36.2575 5.32249C37.329 5.68364 37.6867 7.0164 36.9396 7.86477C36.4125 8.46195 35.7466 8.7321 34.7488 8.71693L34.7479 8.71599Z" fill="#5157AE"/>
<path d="M35.2629 59.3843C47.0768 59.3843 56.6538 49.8949 56.6538 38.1891C56.6538 26.4834 47.0768 16.994 35.2629 16.994C23.4491 16.994 13.8721 26.4834 13.8721 38.1891C13.8721 49.8949 23.4491 59.3843 35.2629 59.3843Z" fill="#7277D4"/>
<path d="M29.4261 15.9285C28.722 15.9617 28.037 15.829 27.3597 15.664C27.0191 15.5816 26.7321 15.628 26.4174 15.7986C25.434 16.3352 24.5911 17.0376 23.7703 17.8945C23.6938 16.8195 24.0994 16.1513 24.5328 15.2735C24.6103 14.9067 24.5672 14.7351 24.1913 14.6014C23.9779 14.5266 23.8736 14.5247 23.6948 14.591C23.7225 14.3341 22.8357 13.827 22.3066 13.5294C22.9591 13.6706 24.4209 14.19 24.9547 14.2431C25.8271 14.3303 26.6929 14.2991 27.5663 14.2517C28.8052 14.1853 30.0489 14.1237 31.2839 14.4242C30.5683 14.573 29.8508 14.7171 29.1372 14.8744C28.9372 14.919 28.7411 14.9901 28.5536 15.0725C28.3852 15.1465 28.1595 15.2024 28.1853 15.447C28.2111 15.6925 28.4436 15.6688 28.6196 15.7294C28.8837 15.8204 28.7717 15.8157 29.427 15.9266L29.4261 15.9285Z" fill="#5157AE"/>
<path d="M26.2178 10.8886C26.4273 10.9 26.6301 10.8497 26.719 11.0488C26.8128 11.2592 26.7315 11.4374 26.5698 11.5986C26.3775 11.7901 26.1699 11.9484 25.9193 12.0631C25.5892 12.2147 25.4132 12.0242 25.2487 11.7977C25.0707 11.5521 25.174 11.3436 25.374 11.1825C25.6265 10.9787 25.9327 10.8971 26.2178 10.8886Z" fill="#5157AE"/>
<path d="M24.8414 49.6948C23.0611 49.1118 21.605 48.0995 20.5785 46.5241C19.8199 45.36 19.3904 44.0889 19.3875 42.6945C19.3808 39.647 19.4286 36.5995 19.3731 33.5529C19.309 30.0078 22.1159 26.4598 26.0095 26.0446C26.0401 26.0417 26.0678 26.0209 26.0975 26.0086C26.3673 25.9972 26.6371 25.9773 26.9078 25.9773C30.5699 25.9754 34.232 25.9669 37.894 25.9801C40.0743 25.9877 42.2554 25.9252 44.4357 26.0237C47.8892 26.5403 50.3411 28.8096 51.0797 32.188C51.2012 32.7434 51.2394 33.3093 51.2375 33.88C51.2318 36.517 51.1562 39.1569 51.2547 41.7902C51.3925 45.4605 48.8832 49.1118 44.7303 49.7896C44.3486 49.8076 43.9679 49.8408 43.5862 49.8417C39.5395 49.8493 35.4928 49.8521 31.4462 49.8559C30.7746 50.1308 30.3049 50.6768 29.7519 51.1081C28.6699 51.9527 27.6167 52.8323 26.55 53.6959C26.0669 54.0874 25.7254 54.04 25.3723 53.5385C25.2757 52.5186 25.3551 51.4958 25.3274 50.4749C25.3216 50.2465 25.38 49.9924 25.1303 49.836L25.1351 49.8398C25.0739 49.7194 24.9419 49.7393 24.8414 49.6948ZM42.6314 39.5352C43.7823 39.5408 44.6375 38.7171 44.6452 37.5976C44.6528 36.4971 43.7813 35.5843 42.6936 35.553C41.5867 35.5208 40.6129 36.4715 40.6186 37.5777C40.6243 38.6858 41.492 39.5304 42.6314 39.5352ZM27.8472 39.5352C28.9962 39.5446 29.8859 38.6991 29.9098 37.5758C29.9318 36.5398 28.9866 35.5805 27.9199 35.5559C26.8121 35.5312 25.887 36.4374 25.8822 37.5531C25.8775 38.6877 26.7088 39.5257 27.8472 39.5352ZM35.2881 39.5371C36.4217 39.5371 37.2799 38.6906 37.2818 37.573C37.2847 36.4611 36.35 35.5331 35.2527 35.5578C34.1832 35.5824 33.2562 36.5246 33.26 37.5825C33.2648 38.6565 34.1784 39.5371 35.2872 39.5371H35.2881Z" fill="#FEFEFE"/>
<path d="M42.631 39.5352C41.4916 39.5295 40.6239 38.6859 40.6182 37.5778C40.6124 36.4706 41.5863 35.5208 42.6932 35.553C43.7809 35.5843 44.6524 36.4981 44.6448 37.5977C44.6371 38.7181 43.7819 39.5409 42.631 39.5352Z" fill="#9DA4CA"/>
<path d="M27.8459 39.5342C26.7065 39.5247 25.8761 38.6867 25.8809 37.5521C25.8857 36.4364 26.8108 35.5302 27.9186 35.5549C28.9852 35.5786 29.9304 36.5388 29.9084 37.5749C29.8845 38.6991 28.9948 39.5437 27.8459 39.5342Z" fill="#9DA4CA"/>
<path d="M35.2879 39.5362C34.1792 39.5362 33.2655 38.6556 33.2608 37.5816C33.256 36.5237 34.1839 35.5815 35.2535 35.5569C36.3508 35.5322 37.2845 36.4593 37.2826 37.5721C37.2797 38.6897 36.4216 39.5352 35.2889 39.5362H35.2879Z" fill="#9DA4CA"/>
</g>
<defs>
<clipPath id="clip0_3088_493">
<rect width="72" height="74" fill="white"/>
</clipPath>
</defs>
</svg>
