<svg width="221" height="74" viewBox="0 0 221 74" fill="none" xmlns="http://www.w3.org/2000/svg">
<path d="M25.2094 0.148735C16.7157 0.966118 9.39277 4.73515 5.88051 10.0708C4.96227 11.4558 4.96227 11.4785 5.10001 13.1133C5.35252 16.2239 6.36258 18.9712 7.9695 20.9693C8.35975 21.4688 8.63522 21.9002 8.58931 21.9683C8.15315 22.377 5.07705 19.4253 3.9063 17.4954L3.30944 16.4737L3.1258 17.1548C2.82737 18.1311 2.87328 23.989 3.17171 25.6692C3.30944 26.4639 3.56196 27.6445 3.74561 28.2576C4.04403 29.302 4.18177 29.4609 5.51321 30.2329C8.10723 31.7314 9.23208 32.0493 12.0786 32.1855C14.1446 32.2764 14.6038 32.3445 14.4201 32.5715C13.984 33.0937 9.98962 33.6614 7.94654 33.5024L6.11007 33.3435L6.8217 34.2517C7.7629 35.4324 9.34686 36.7266 11.2063 37.8391C13.5478 39.2468 17.4044 40.927 18.5981 41.0405C21.0773 41.2903 25.2553 39.7463 27.505 37.7483C28.1478 37.1807 28.7217 36.772 28.8135 36.8401C29.2037 37.2488 25.8063 41.1313 24.0616 42.2666C23.7402 42.4709 23.5566 42.698 23.6254 42.7661C23.7173 42.8569 25.3701 43.311 27.2984 43.8105C31.2927 44.7868 35.1264 46.0583 36.7562 46.9438C38.2943 47.7612 39.993 49.6457 40.3603 50.9399C40.544 51.5757 40.6128 52.6201 40.544 53.551C40.3144 56.6616 38.1566 58.864 34.5066 59.7268C32.8078 60.1127 28.6298 60.0446 26.472 59.6132C21.9267 58.6369 15.545 55.2766 10.9767 51.4167C10.1503 50.7356 9.36981 50.1906 9.23208 50.2133C9.09434 50.2588 7.32673 52.2568 5.32957 54.6862C0.0956124 60.9755 -0.110991 61.248 0.0267447 61.5886C0.371084 62.4968 6.77579 67.0151 10.311 68.8769C23.2352 75.5976 39.3732 75.643 48.5097 68.9677C55.5572 63.8137 58.1741 56.7297 56.5213 47.4433C55.8556 43.7651 54.4782 41.0859 51.9301 38.543C48.3031 34.9102 43.0003 32.3218 35.0805 30.301C30.3745 29.1204 25.439 27.5764 23.6714 26.7363C20.8937 25.4422 19.5163 23.762 19.3097 21.3325C18.9654 17.5635 21.7431 14.521 26.1736 13.8399C27.7805 13.5901 31.7289 13.8399 33.9097 14.3167C38.6845 15.3384 45.3188 18.6306 47.7292 21.1736C49.5197 23.0581 50.6905 25.76 50.6905 27.9624C50.6905 28.5527 50.7823 29.0522 50.8971 29.0522C51.7006 29.0522 54.2028 25.8963 55.0751 23.8301C55.5112 22.8084 55.6031 22.1726 55.6031 20.1973C55.6031 17.6089 55.2358 16.292 53.8584 13.9988L53.1927 12.8863L54.3634 11.2288C54.9833 10.3206 55.5112 9.4578 55.5112 9.34428C55.5112 9.09452 53.6977 7.70952 51.7694 6.50615C44.5383 1.94244 33.5883 -0.668648 25.2094 0.148735ZM48.3031 6.82402C49.6575 7.6414 52.1367 10.6612 51.7694 11.0245C51.7235 11.0699 51.2185 10.8655 50.6675 10.5704C50.1166 10.2752 49.0377 9.8892 48.2801 9.73026C47.5226 9.57133 46.8109 9.38969 46.7191 9.29887C46.4896 9.09452 46.0534 6.36992 46.2141 6.12016C46.3748 5.87041 47.2471 6.16557 48.3031 6.82402Z" fill="white"/>
<path d="M68.3691 53.3699V49.7299H85.6731C87.3157 49.7299 88.1371 48.9273 88.1371 47.3219V43.0659C88.1371 41.6473 87.5024 40.8073 86.2331 40.5459L74.8651 38.2499C70.5344 37.3913 68.3691 34.4793 68.3691 29.5139V26.4339C68.3691 20.3486 71.4117 17.3059 77.4971 17.3059H90.5451L93.8491 19.8819V23.5219H77.6651C76.0224 23.5219 75.2011 24.3246 75.2011 25.9299V29.6819C75.2011 31.1006 75.8357 31.9406 77.1051 32.2019L88.4731 34.4419C92.8037 35.3379 94.9691 38.2499 94.9691 43.1779V46.8179C94.9691 52.9033 91.9264 55.9459 85.8411 55.9459H71.6731L68.3691 53.3699ZM99.1109 54.6019L111.039 17.3059H121.679L133.551 54.6019L132.711 55.9459H126.943L124.311 47.4339H108.351L105.663 55.9459H100.007L99.1109 54.6019ZM110.255 41.2179H122.463L116.863 23.5219H115.799L110.255 41.2179ZM139.393 55.9459V17.3059H147.793L159.385 42.0579L170.977 17.3059H179.377V55.9459H172.489V28.9539L162.297 50.6819H156.417L146.225 28.9539V55.9459H139.393ZM185.189 54.6019L197.117 17.3059H207.757L219.629 54.6019L218.789 55.9459H213.021L210.389 47.4339H194.429L191.741 55.9459H186.085L185.189 54.6019ZM196.333 41.2179H208.541L202.941 23.5219H201.877L196.333 41.2179Z" fill="white"/>
</svg>
