<svg width="134" height="48" viewBox="0 0 134 48" fill="none" xmlns="http://www.w3.org/2000/svg">
<path d="M16.364 0.0965614C10.8505 0.627144 6.09706 3.07371 3.81717 6.53722C3.22112 7.43626 3.22112 7.451 3.31053 8.51217C3.47444 10.5313 4.1301 12.3147 5.17318 13.6116C5.4265 13.9359 5.60532 14.2159 5.57552 14.2601C5.29239 14.5254 3.29563 12.6094 2.53567 11.3567L2.14824 10.6934L2.02903 11.1356C1.83531 11.7693 1.86511 15.5718 2.05883 16.6625C2.14824 17.1783 2.31215 17.9447 2.43136 18.3426C2.62507 19.0206 2.71448 19.1238 3.57875 19.6249C5.26259 20.5976 5.99275 20.804 7.8405 20.8924C9.18161 20.9513 9.47964 20.9956 9.36043 21.1429C9.0773 21.4819 6.48449 21.8504 5.15828 21.7472L3.96618 21.644L4.42812 22.2336C5.03907 23 6.06726 23.8401 7.27426 24.5622C8.79418 25.476 11.2976 26.5667 12.0724 26.6403C13.6818 26.8025 16.3938 25.8003 17.8541 24.5033C18.2714 24.1348 18.6439 23.8695 18.7035 23.9137C18.9568 24.179 16.7514 26.6993 15.6189 27.4362C15.4103 27.5689 15.2911 27.7162 15.3358 27.7605C15.3954 27.8194 16.4683 28.1142 17.72 28.4384C20.3128 29.0722 22.8013 29.8975 23.8593 30.4723C24.8577 31.0029 25.9604 32.2262 26.1988 33.0663C26.318 33.4789 26.3627 34.1569 26.318 34.7612C26.169 36.7803 24.7683 38.21 22.399 38.77C21.2963 39.0206 18.5843 38.9764 17.1836 38.6963C14.2331 38.0626 10.0906 35.8813 7.12524 33.3758C6.5888 32.9336 6.08216 32.5799 5.99275 32.5946C5.90334 32.6241 4.75595 33.9211 3.45954 35.4981C0.0620642 39.5806 -0.0720467 39.7575 0.0173606 39.9786C0.240879 40.5681 4.39832 43.501 6.69311 44.7096C15.0825 49.0721 25.5581 49.1016 31.4887 44.7685C36.0634 41.4229 37.7622 36.8246 36.6893 30.7966C36.2571 28.409 35.3631 26.6698 33.709 25.0191C31.3546 22.661 27.9124 20.9808 22.7715 19.6691C19.7168 18.9027 16.513 17.9005 15.3656 17.3552C13.5626 16.5151 12.6685 15.4245 12.5344 13.8475C12.3109 11.4009 14.1139 9.42595 16.9899 8.98379C18.0329 8.82167 20.5959 8.98379 22.0116 9.2933C25.111 9.95652 29.4175 12.0936 30.9821 13.7443C32.1444 14.9676 32.9044 16.7214 32.9044 18.1511C32.9044 18.5342 32.964 18.8585 33.0385 18.8585C33.56 18.8585 35.1842 16.8099 35.7505 15.4687C36.0336 14.8054 36.0932 14.3928 36.0932 13.1105C36.0932 11.4304 35.8548 10.5755 34.9607 9.08696L34.5286 8.36478L35.2886 7.28888C35.6909 6.69935 36.0336 6.13929 36.0336 6.0656C36.0336 5.90348 34.8564 5.00444 33.6047 4.2233C28.9108 1.26089 21.8029 -0.434021 16.364 0.0965614ZM31.3546 4.42964C32.2338 4.96022 33.8431 6.92042 33.6047 7.15623C33.5749 7.18571 33.2471 7.05307 32.8895 6.86147C32.5318 6.66987 31.8315 6.41932 31.3397 6.31615C30.848 6.21298 30.3861 6.09507 30.3264 6.03612C30.1774 5.90348 29.8943 4.13487 29.9986 3.97275C30.1029 3.81063 30.6692 4.00223 31.3546 4.42964Z" fill="white"/>
<path d="M46.8538 34.528V32.448H56.7418C57.6804 32.448 58.1498 31.9893 58.1498 31.072V28.64C58.1498 27.8293 57.7871 27.3493 57.0618 27.2L50.5658 25.888C48.0911 25.3973 46.8538 23.7333 46.8538 20.896V19.136C46.8538 15.6587 48.5924 13.92 52.0698 13.92H59.5258L61.4138 15.392V17.472H52.1658C51.2271 17.472 50.7578 17.9307 50.7578 18.848V20.992C50.7578 21.8027 51.1204 22.2827 51.8458 22.432L58.3418 23.712C60.8164 24.224 62.0538 25.888 62.0538 28.704V30.784C62.0538 34.2613 60.3151 36 56.8378 36H48.7418L46.8538 34.528ZM64.4205 35.232L71.2365 13.92H77.3165L84.1005 35.232L83.6205 36H80.3245L78.8205 31.136H69.7005L68.1645 36H64.9325L64.4205 35.232ZM70.7885 27.584H77.7645L74.5645 17.472H73.9565L70.7885 27.584ZM87.4388 36V13.92H92.2388L98.8628 28.064L105.487 13.92H110.287V36H106.351V20.576L100.527 32.992H97.1668L91.3428 20.576V36H87.4388ZM113.608 35.232L120.424 13.92H126.504L133.288 35.232L132.808 36H129.512L128.008 31.136H118.888L117.352 36H114.12L113.608 35.232ZM119.976 27.584H126.952L123.752 17.472H123.144L119.976 27.584Z" fill="white"/>
</svg>
