<svg width="32" height="32" viewBox="0 0 32 32" fill="none" xmlns="http://www.w3.org/2000/svg">
<g clip-path="url(#clip0_780_2154)">
<path d="M16 0C11.7565 0 7.68687 1.68571 4.68629 4.68629C1.68571 7.68687 0 11.7565 0 16C0 20.2435 1.68571 24.3131 4.68629 27.3137C7.68687 30.3143 11.7565 32 16 32C20.2435 32 24.3131 30.3143 27.3137 27.3137C30.3143 24.3131 32 20.2435 32 16C32 11.7565 30.3143 7.68687 27.3137 4.68629C24.3131 1.68571 20.2435 0 16 0ZM20.2173 29.044H20.0933C20.0001 29.0503 19.9066 29.037 19.8188 29.0048C19.7311 28.9727 19.6511 28.9224 19.584 28.8573C19.5206 28.7918 19.4714 28.714 19.4393 28.6287C19.4072 28.5434 19.3929 28.4524 19.3973 28.3613V26.4867C19.4062 25.8636 19.4107 25.2342 19.4107 24.5987C19.4084 24.1346 19.3406 23.6731 19.2093 23.228C19.085 22.778 18.8342 22.3731 18.4867 22.0613C19.416 21.9718 20.3296 21.7607 21.204 21.4333C21.9416 21.1529 22.6089 20.7141 23.1587 20.148C23.7013 19.5787 24.1053 18.8907 24.3387 18.14C24.6218 17.2206 24.7569 16.2619 24.7387 15.3C24.745 14.6283 24.6275 13.9611 24.392 13.332C24.1536 12.6977 23.7935 12.1162 23.332 11.62C23.4318 11.3699 23.5042 11.1097 23.548 10.844C23.5924 10.5773 23.6147 10.3089 23.6147 10.0387C23.6147 9.69022 23.5747 9.34667 23.4947 9.008C23.4236 8.66161 23.325 8.32143 23.2 7.99067C23.1528 7.9725 23.1026 7.96345 23.052 7.964H22.9053C22.5978 7.96756 22.2982 8.01689 22.0067 8.112C21.686 8.20394 21.3727 8.31982 21.0693 8.45867C20.7677 8.59537 20.4735 8.74803 20.188 8.916C19.9018 9.08578 19.6471 9.24667 19.424 9.39867C17.1808 8.77499 14.8099 8.77499 12.5667 9.39867C12.3164 9.23165 12.0621 9.07072 11.804 8.916C11.5152 8.74537 11.2159 8.59306 10.908 8.46C10.6049 8.31798 10.2905 8.20158 9.968 8.112C9.68308 8.01781 9.38539 7.96789 9.08533 7.964H8.93867C8.88854 7.96362 8.83879 7.97267 8.792 7.99067C8.66735 8.32261 8.5649 8.66247 8.48533 9.008C8.41422 9.34756 8.37822 9.69111 8.37733 10.0387C8.37733 10.3089 8.4 10.5773 8.44533 10.844C8.49067 11.1107 8.56178 11.3693 8.65867 11.62C8.19845 12.1169 7.83973 12.6989 7.60267 13.3333C7.36581 13.9622 7.24694 14.6294 7.252 15.3013C7.23399 16.2581 7.36534 17.2118 7.64133 18.128C7.88267 18.8787 8.28533 19.568 8.82 20.1493C9.37333 20.712 10.04 21.1493 10.7747 21.4347C11.6453 21.768 12.5573 21.9813 13.4853 22.0693C13.2253 22.3034 13.0196 22.5914 12.8827 22.9133C12.7515 23.2312 12.6619 23.5646 12.616 23.9053C12.1268 24.1397 11.5918 24.2627 11.0493 24.2653C10.5457 24.2844 10.0489 24.1444 9.62933 23.8653C9.22716 23.5675 8.88664 23.1943 8.62667 22.7667C8.51073 22.5867 8.38053 22.4164 8.23733 22.2573C8.08668 22.0897 7.92062 21.9366 7.74133 21.8C7.56496 21.6674 7.37113 21.5597 7.16533 21.48C6.96314 21.3913 6.74478 21.3455 6.524 21.3453C6.47067 21.3471 6.41733 21.3516 6.364 21.3587C6.29121 21.3591 6.21871 21.3681 6.148 21.3853C6.08588 21.4014 6.02716 21.4285 5.97467 21.4653C5.9511 21.4789 5.93138 21.4983 5.91738 21.5216C5.90338 21.545 5.89557 21.5715 5.89467 21.5987C5.90027 21.6628 5.91989 21.725 5.95214 21.7807C5.9844 21.8365 6.0285 21.8845 6.08133 21.9213C6.20578 22.02 6.30889 22.096 6.39067 22.1493L6.43067 22.1773C6.60844 22.3151 6.77822 22.4631 6.94 22.6213C7.09022 22.7529 7.22356 22.8996 7.34 23.0613C7.46089 23.2196 7.56356 23.3889 7.648 23.5693C7.74578 23.7471 7.84844 23.9529 7.956 24.1867C8.20667 24.8187 8.652 25.3533 9.228 25.7133C9.832 26.0373 10.5093 26.1987 11.196 26.1813C11.4289 26.1813 11.6609 26.168 11.892 26.1413C12.1213 26.1049 12.3502 26.0644 12.5787 26.02V28.344C12.5828 28.4377 12.5671 28.5312 12.5327 28.6185C12.4982 28.7057 12.4457 28.7847 12.3787 28.8502C12.3116 28.9158 12.2314 28.9665 12.1434 28.9989C12.0554 29.0314 11.9616 29.0449 11.868 29.0387H11.7853C8.67605 28.0342 6.02755 25.9527 4.31676 23.1688C2.60596 20.385 1.94529 17.0818 2.45371 13.8541C2.96213 10.6264 4.60623 7.68627 7.08996 5.56315C9.57369 3.44003 12.7338 2.27343 16.0013 2.27343C19.2688 2.27343 22.429 3.44003 24.9127 5.56315C27.3964 7.68627 29.0405 10.6264 29.549 13.8541C30.0574 17.0818 29.3967 20.385 27.6859 23.1688C25.9751 25.9527 23.3266 28.0342 20.2173 29.0387V29.044Z" fill="#958CF8"/>
</g>
<defs>
<clipPath id="clip0_780_2154">
<rect width="32" height="32" fill="white"/>
</clipPath>
</defs>
</svg>
