<svg width="32" height="32" viewBox="0 0 32 32" fill="none" xmlns="http://www.w3.org/2000/svg">
<path fill-rule="evenodd" clip-rule="evenodd" d="M10.8266 3.89545C10.737 3.88133 10.6459 3.87917 10.5557 3.88905C8.76152 4.08319 6.03085 5.05172 4.41805 5.92639C4.31153 5.98449 4.21618 6.06105 4.13645 6.15252C3.46659 6.91839 2.85859 8.16639 2.38285 9.34825C1.89219 10.56 1.48685 11.84 1.25859 12.7659C0.503387 15.7739 0.091654 19.3856 0.0361874 22.8117C0.0344228 22.9827 0.0754939 23.1514 0.155654 23.3024C0.795654 24.5248 2.17592 25.6576 3.55832 26.4853C4.95565 27.3237 6.58765 27.9851 7.90179 28.1131C8.05924 28.1281 8.21803 28.1064 8.36571 28.0498C8.5134 27.9932 8.64595 27.9031 8.75299 27.7866C9.08152 27.4304 9.64045 26.5984 10.0629 25.952C10.2549 25.6576 10.4362 25.376 10.577 25.152C11.9893 25.408 13.7599 25.5573 15.9999 25.5573C18.2357 25.5573 20.0063 25.408 21.4186 25.152C21.5594 25.3781 21.7386 25.6576 21.9306 25.9499C22.353 26.5984 22.9119 27.4304 23.2426 27.7866C23.3496 27.9031 23.4822 27.9932 23.6299 28.0498C23.7775 28.1064 23.9363 28.1281 24.0938 28.1131C25.4079 27.9851 27.0378 27.3237 28.4351 26.4853C29.8175 25.6576 31.1978 24.5248 31.8399 23.3024C31.9193 23.1512 31.9597 22.9825 31.9573 22.8117C31.9039 19.3856 31.4901 15.7717 30.7391 12.7637C30.4374 11.602 30.0604 10.4611 29.6106 9.34825C29.1349 8.16639 28.5269 6.91625 27.8591 6.15252C27.7788 6.06085 27.6827 5.98427 27.5754 5.92639C25.9647 5.05172 23.2341 4.08319 21.4399 3.88905C21.3497 3.87917 21.2586 3.88133 21.169 3.89545C20.7669 3.97283 20.3898 4.14711 20.0703 4.40319C19.3547 4.97926 18.7761 5.70722 18.3765 6.53439C17.5858 6.47237 16.793 6.44177 15.9999 6.44265C15.1423 6.44265 14.3487 6.47465 13.617 6.53225C13.217 5.70586 12.6385 4.97865 11.9231 4.40319C11.6043 4.14742 11.2279 3.97316 10.8266 3.89545ZM23.505 24.6144C23.8052 25.0768 24.1132 25.5341 24.4287 25.9861C25.2735 25.7941 26.3509 25.3461 27.3834 24.7274C28.5418 24.0341 29.4613 23.2341 29.905 22.5579C29.8346 19.3451 29.4378 16.0085 28.753 13.2608C28.474 12.1906 28.1263 11.1395 27.7119 10.1141C27.2853 9.05172 26.8266 8.15145 26.4277 7.63519C25.041 6.91625 22.8543 6.15679 21.4293 5.94985C21.3864 5.97586 21.3451 6.00435 21.3055 6.03519C21.1288 6.17425 20.9672 6.33157 20.8234 6.50452C20.7393 6.60466 20.6589 6.70784 20.5823 6.81385C21.233 6.93332 21.8133 7.07625 22.3274 7.23412C23.7866 7.68212 24.8383 8.30079 25.3525 8.98559C25.5154 9.20285 25.5854 9.47595 25.547 9.7448C25.5086 10.0137 25.3649 10.2562 25.1477 10.4192C25.0401 10.4999 24.9177 10.5586 24.7874 10.5919C24.6571 10.6253 24.5216 10.6327 24.3884 10.6137C24.1196 10.5753 23.877 10.4317 23.7141 10.2144C23.5882 10.048 23.0399 9.59572 21.7258 9.19039C20.4565 8.80212 18.5898 8.49065 15.9999 8.49065C13.4101 8.49065 11.5413 8.80212 10.2741 9.19252C8.95992 9.59785 8.41165 10.0459 8.28579 10.2144C8.2051 10.322 8.10402 10.4126 7.98831 10.4811C7.8726 10.5496 7.74453 10.5947 7.6114 10.6137C7.34255 10.6521 7.06945 10.5821 6.85219 10.4192C6.74461 10.3385 6.65398 10.2374 6.58546 10.1217C6.51695 10.006 6.4719 9.87792 6.45288 9.7448C6.41447 9.47595 6.48444 9.20285 6.64739 8.98559C7.16152 8.29865 8.21325 7.68425 9.67245 7.23625C10.1845 7.07625 10.7647 6.93545 11.4133 6.81599C11.3366 6.70882 11.2554 6.6049 11.1701 6.50452C11.027 6.33168 10.8661 6.17437 10.6901 6.03519C10.6498 6.00429 10.6078 5.9758 10.5642 5.94985C9.14125 6.15679 6.95459 6.91625 5.56792 7.63519C5.16685 8.15359 4.71032 9.05172 4.28152 10.1141C3.82712 11.2448 3.44952 12.4331 3.24259 13.2608C2.55565 16.0085 2.15885 19.3451 2.09059 22.5579C2.53432 23.2363 3.45165 24.0341 4.61005 24.7296C5.64472 25.3483 6.71992 25.7963 7.56685 25.9861C7.88558 25.5363 8.19358 25.0789 8.49059 24.6144C6.81592 24.0192 5.91779 23.2021 5.33325 22.3274C5.25873 22.2154 5.20701 22.0897 5.18105 21.9577C5.15509 21.8257 5.15539 21.6898 5.18193 21.5578C5.20848 21.4259 5.26075 21.3005 5.33576 21.1888C5.41077 21.077 5.50706 20.9812 5.61912 20.9067C5.73118 20.8321 5.85682 20.7804 5.98887 20.7544C6.12092 20.7285 6.25679 20.7288 6.38873 20.7553C6.52066 20.7819 6.64607 20.8341 6.7578 20.9092C6.86954 20.9842 6.9654 21.0805 7.03992 21.1925C7.59459 22.0288 9.05379 23.5093 15.9999 23.5093C22.9482 23.5093 24.4053 22.0288 24.9599 21.1925C25.1104 20.9662 25.3447 20.8089 25.6111 20.7553C25.8776 20.7017 26.1544 20.7562 26.3807 20.9067C26.607 21.0572 26.7643 21.2914 26.8179 21.5578C26.8715 21.8243 26.8171 22.1011 26.6666 22.3274C26.0821 23.2021 25.1818 24.0213 23.505 24.6144ZM8.70392 14.9589C9.22445 14.4 9.93059 14.0843 10.6666 14.08C11.4026 14.0843 12.1087 14.4 12.6293 14.9589C13.1477 15.52 13.4399 16.2773 13.4399 17.0667C13.4399 17.856 13.1477 18.6133 12.6293 19.1744C12.1087 19.7333 11.4026 20.0491 10.6666 20.0533C10.2966 20.0494 9.93143 19.9694 9.59377 19.8181C9.2561 19.6669 8.95319 19.4478 8.70392 19.1744C8.17828 18.5987 7.88883 17.8462 7.89325 17.0667C7.89325 16.2773 8.18552 15.52 8.70392 14.9589ZM21.3333 14.08C20.5973 14.0843 19.8911 14.4 19.3706 14.9589C18.8522 15.52 18.5599 16.2773 18.5599 17.0667C18.5599 17.856 18.8522 18.6133 19.3706 19.1744C19.8911 19.7333 20.5973 20.0491 21.3333 20.0533C22.0693 20.0491 22.7754 19.7333 23.2959 19.1744C23.8143 18.6133 24.1066 17.856 24.1066 17.0667C24.1066 16.2773 23.8143 15.52 23.2959 14.9589C23.0467 14.6855 22.7437 14.4664 22.4061 14.3152C22.0684 14.1639 21.7032 14.0839 21.3333 14.08Z" fill="#958CF8"/>
</svg>
