<svg width="803" height="833" viewBox="0 0 803 833" fill="none" xmlns="http://www.w3.org/2000/svg">
<g clip-path="url(#clip0_3091_542)">
<path d="M803 407.244C803 383.502 801.143 360.23 797.601 337.588C797.59 337.47 797.59 337.342 797.569 337.225C797.516 336.894 797.452 336.563 797.398 336.233C794.432 317.634 790.335 299.473 785.161 281.835C782.995 274.195 780.669 266.587 778.129 259.043C763.502 215.551 741.256 176.231 713.089 140.187C666.922 81.1051 609.222 37.9437 537.769 13.9141C532.552 12.1642 527.313 10.6063 522.032 9.22983C503.99 3.4145 482.107 0 458.517 0C446.503 0 434.938 0.885637 424.087 2.52887C414.036 3.55322 404.103 5.44186 394.287 7.96006C369.385 14.3409 345.731 23.4107 325.704 40.2911C318.727 46.1705 313.488 53.597 307.108 59.9779C294.72 72.3768 279.378 80.849 265.454 91.2206C259.266 95.8195 252.96 100.322 247.807 105.988C240.851 111.291 236.455 119.038 236.455 127.66C236.455 132.099 237.618 136.303 239.698 140.069C241.843 144.551 245.385 148.307 248.757 152.33C246.644 152.799 245.289 153.034 243.923 153.236C243.081 153.418 242.451 153.514 241.992 153.621C235.324 155.168 230.427 155.915 223.737 157.345C222.819 157.537 222.542 157.601 220.75 158.102C220.301 158.22 219.885 158.337 219.555 158.422C154.023 175.687 99.876 210.686 60.4206 265.766C23.0563 317.944 4.53427 377.377 0.671945 441.453C-1.64331 479.844 1.97361 517.5 12.451 554.547C28.8818 612.69 55.7153 664.996 97.5821 709.128C146 760.164 204.596 794.534 271.28 815.597C301.175 825.04 332.127 829.148 363.282 831.485C369.641 831.965 376.011 832.306 382.38 832.488C401.66 833.672 423.639 832.808 446.738 829.554C465.111 826.971 482.384 823.13 497.844 818.424C505.078 816.418 512.237 814.135 519.311 811.595C638.382 768.711 722.969 689.196 772.037 572.377C784.563 542.543 793.355 511.567 797.537 479.386C797.452 479.193 797.377 479.012 797.302 478.831C799.682 464.052 801.335 448.996 802.221 433.706C802.85 426.877 803.064 420.048 802.946 413.198C802.968 411.213 802.989 409.228 802.989 407.244H803ZM400.593 96.3103C396.859 97.6014 392.58 98.199 387.523 98.1136C381.036 98.1136 376.203 95.1793 373.386 88.1262C372.98 87.1018 372.671 86.0668 372.436 85.0105C380.396 89.4706 389.913 93.2906 400.593 96.3103ZM701.448 405.398C699.453 443.821 693.35 481.402 676.375 516.476C670.144 529.333 663.903 542.18 657.608 555.006C656.818 554.355 656.082 554.27 655.527 555.252C649.659 565.495 646.885 572.441 640.548 581.938C639.961 582.738 639.278 583.656 638.52 584.68C626.72 600.547 617.278 612.637 615.933 614.333C584.757 653.728 546.187 673.681 546.187 673.681C521.552 688.641 494.58 699.813 465.271 707.197C464.609 707.368 463.99 707.73 463.361 708.008C464.407 710.057 462.529 709.299 461.867 709.459C440.752 714.581 419.691 719.767 397.883 721.314C385.88 722.167 373.909 723.555 361.863 723.181C333.664 722.306 305.902 718.572 278.78 710.515C244.798 700.421 213.377 685.195 185.295 663.47C159.337 643.388 138.296 618.943 122.068 590.4C106.619 563.233 98.3076 533.719 93.7517 503.031C92.6421 495.53 92.162 487.922 91.4365 480.367C91.3191 479.161 91.1591 477.849 92.322 476.931C90.5296 465.173 88.4704 453.446 87.9689 441.527C88.0223 431.721 88.0223 433.13 88.0223 431.721C88.0223 421.51 87.7342 420.048 87.7449 409.836C87.7449 408.439 87.6809 407.201 87.9156 404.416C91.0204 360.529 102.799 319.192 127.008 282.294C158.664 234.032 199.368 195.459 252.224 170.768C254.006 169.936 255.681 169.231 258.018 168.122C259.511 167.46 259.138 167.663 260.536 167.044C261.197 166.756 261.293 166.702 261.955 166.372C262.414 166.073 262.285 166.18 262.68 165.827C263.598 165.006 263.416 165.187 264.227 164.312L264.259 164.291C264.259 164.291 264.259 164.291 264.249 164.291C264.419 164.12 264.59 163.95 264.75 163.789C265.092 163.448 265.209 162.946 265.06 162.488C264.387 160.439 263.907 160.076 259.319 156.63C266.596 158.22 272.357 159.788 278.311 160.386C288.041 161.367 297.697 161.015 307.438 160.482C321.255 159.735 335.125 159.041 348.9 162.424C340.972 164.088 333.024 165.699 325.118 167.46C322.824 167.972 320.604 168.772 318.449 169.722C316.571 170.554 314.053 171.184 314.341 173.937C314.63 176.701 317.222 176.434 319.185 177.117C322.13 178.141 315.195 178.707 322.087 179.272C330.047 179.912 341.612 180.414 348.291 180.008C384.258 177.768 418.464 168.442 451.336 153.93C451.966 153.653 452.51 153.461 453.097 153.098C454.58 152.255 453.812 152.714 455.487 151.86C458.581 150.548 458.069 150.612 461.622 149.406C472.835 141.691 483.174 132.952 493.363 123.882C505.377 113.18 520.357 113.362 535.209 116.883C551.629 120.777 565.243 130.167 578.558 139.973C618.921 169.69 648.283 208.306 669.238 253.452C683.332 283.799 692.753 315.617 697.479 348.845C700.147 367.646 702.451 386.458 701.459 405.44L701.448 405.398Z" fill="#1B1B1D"/>
<path d="M461.622 149.374C461.622 149.374 461.601 149.384 461.59 149.395L461.622 149.374Z" fill="#7277D4"/>
<path d="M265.304 163.256V163.192C265.304 163.192 265.304 163.203 265.294 163.213C265.294 163.235 265.294 163.245 265.304 163.256Z" fill="#7277D4"/>
<path d="M651.58 562.454C653.831 558.175 653.65 558.602 654.226 557.567C671.905 523.006 683.012 486.524 686.725 447.844C693.777 374.315 678.957 305.971 636.621 244.83C604.688 198.713 562.597 165.422 508.204 148.99C496.169 145.351 484.049 143.558 471.555 146.247C468.13 146.984 465.377 147.549 461.59 149.395C472.814 141.67 483.163 132.931 493.353 123.85C505.366 113.148 520.346 113.329 535.198 116.851C551.618 120.745 565.232 130.135 578.548 139.941C618.91 169.658 648.272 208.274 669.227 253.42C683.321 283.766 692.742 315.585 697.469 348.813C700.136 367.614 702.441 386.426 701.449 405.408C699.453 443.832 693.35 481.413 676.375 516.486C669.899 529.856 663.412 543.226 656.861 556.553C656.04 558.229 653.82 561.814 651.58 562.465V562.454Z" fill="#2A2A2A"/>
<path d="M92.3007 476.921C114.504 582.962 178.029 654.123 276.871 695.406C288.116 700.101 299.874 703.334 311.589 706.685C326.622 710.985 342.007 713.759 357.435 715.445C373.365 717.184 389.486 716.619 405.565 716.352C425.292 716.032 444.156 711.22 463.35 708.008C464.396 710.057 462.507 709.299 461.857 709.459C440.742 714.581 419.68 719.767 397.872 721.314C385.869 722.167 373.898 723.554 361.852 723.181C333.653 722.306 305.891 718.571 278.77 710.515C244.788 700.421 213.366 685.195 185.284 663.47C159.326 643.388 138.286 618.943 122.058 590.4C106.608 563.233 98.2969 533.719 93.7411 503.031C92.6314 495.53 92.1513 487.922 91.4258 480.356C91.3084 479.151 91.1484 477.838 92.3114 476.921H92.3007Z" fill="#2A2A2A"/>
<path d="M387.523 98.1136C381.036 98.1136 376.203 95.1793 373.386 88.1262C370.42 80.6997 372.074 72.1848 378.443 66.7749C385.848 60.4901 394.181 56.446 404.359 59.9139C416.309 63.9793 420.299 78.9818 411.967 88.5317C406.088 95.254 398.662 98.295 387.534 98.1243L387.523 98.1136Z" fill="#2A2A2A"/>
<path d="M393.284 668.474C525.042 668.474 631.852 561.655 631.852 429.886C631.852 298.117 525.042 191.297 393.284 191.297C261.527 191.297 154.717 298.117 154.717 429.886C154.717 561.655 261.527 668.474 393.284 668.474Z" fill="#1B1B1D"/>
<path d="M328.18 179.304C320.327 179.678 312.688 178.184 305.134 176.327C301.336 175.399 298.135 175.922 294.625 177.842C283.657 183.882 274.257 191.788 265.102 201.434C264.249 189.334 268.773 181.812 273.606 171.931C274.47 167.801 273.99 165.87 269.797 164.366C267.418 163.523 266.255 163.501 264.26 164.248C264.569 161.357 254.678 155.648 248.778 152.297C256.055 153.887 272.358 159.735 278.311 160.332C288.042 161.314 297.697 160.962 307.439 160.428C321.256 159.681 335.126 158.988 348.9 162.37C340.919 164.046 332.917 165.667 324.958 167.439C322.728 167.94 320.541 168.74 318.449 169.669C316.572 170.501 314.054 171.131 314.342 173.884C314.63 176.647 317.222 176.38 319.186 177.063C322.13 178.088 320.882 178.034 328.191 179.283L328.18 179.304Z" fill="#2A2A2A"/>
<path d="M292.405 122.57C294.742 122.698 297.004 122.133 297.996 124.373C299.041 126.742 298.134 128.748 296.331 130.562C294.187 132.718 291.872 134.499 289.076 135.791C285.395 137.498 283.432 135.353 281.597 132.803C279.612 130.039 280.765 127.692 282.995 125.878C285.811 123.584 289.226 122.666 292.405 122.57Z" fill="#2A2A2A"/>
<path d="M277.041 559.402C257.185 552.84 240.947 541.444 229.498 523.71C221.038 510.607 216.247 496.298 216.215 480.602C216.14 446.297 216.674 411.992 216.055 377.697C215.34 337.79 246.644 297.851 290.069 293.178C290.41 293.146 290.719 292.911 291.05 292.772C294.059 292.644 297.068 292.42 300.087 292.42C340.93 292.399 381.772 292.303 422.614 292.452C446.93 292.537 471.256 291.833 495.572 292.943C534.088 298.758 561.434 324.303 569.671 362.332C571.026 368.585 571.453 374.955 571.431 381.379C571.367 411.063 570.524 440.78 571.623 470.422C573.16 511.738 545.174 552.84 498.858 560.469C494.601 560.672 490.354 561.045 486.097 561.056C440.966 561.141 395.834 561.174 350.703 561.216C343.213 564.311 337.974 570.457 331.807 575.312C319.74 584.819 307.993 594.721 296.097 604.442C290.709 608.848 286.9 608.315 282.963 602.67C281.885 591.189 282.771 579.676 282.461 568.184C282.397 565.612 283.048 562.753 280.263 560.992L280.317 561.035C279.634 559.68 278.162 559.904 277.041 559.402ZM475.449 445.038C488.285 445.102 497.823 435.829 497.908 423.228C497.994 410.839 488.274 400.564 476.143 400.212C463.798 399.849 452.937 410.551 453.001 423.004C453.065 435.477 462.742 444.984 475.449 445.038ZM310.564 445.038C323.378 445.144 333.301 435.627 333.568 422.982C333.813 411.32 323.272 400.521 311.375 400.244C299.02 399.966 288.703 410.167 288.65 422.726C288.596 435.498 297.868 444.931 310.564 445.038ZM393.551 445.059C406.194 445.059 415.765 435.53 415.786 422.95C415.818 410.434 405.394 399.988 393.156 400.265C381.228 400.542 370.889 411.149 370.932 423.057C370.985 435.146 381.175 445.059 393.54 445.059H393.551Z" fill="#6D6D6D"/>
<path d="M475.45 445.038C462.742 444.974 453.065 435.477 453.001 423.004C452.937 410.541 463.799 399.849 476.143 400.212C488.274 400.564 497.994 410.85 497.909 423.228C497.823 435.84 488.285 445.102 475.45 445.038Z" fill="#2A2A2A"/>
<path d="M310.565 445.027C297.857 444.92 288.596 435.488 288.65 422.715C288.703 410.156 299.02 399.956 311.375 400.233C323.272 400.5 333.813 411.309 333.568 422.972C333.301 435.627 323.379 445.134 310.565 445.027Z" fill="#2A2A2A"/>
<path d="M393.562 445.048C381.196 445.048 371.007 435.136 370.953 423.046C370.9 411.138 381.249 400.532 393.178 400.254C405.415 399.977 415.829 410.413 415.807 422.94C415.775 435.52 406.205 445.038 393.572 445.048H393.562Z" fill="#2A2A2A"/>
</g>
<defs>
<clipPath id="clip0_3091_542">
<rect width="803" height="833" fill="white"/>
</clipPath>
</defs>
</svg>
