<?xml version="1.0" standalone="no"?>
<!DOCTYPE svg PUBLIC "-//W3C//DTD SVG 20010904//EN"
 "http://www.w3.org/TR/2001/REC-SVG-20010904/DTD/svg10.dtd">
<svg version="1.0" xmlns="http://www.w3.org/2000/svg"
 width="1184.000000pt" height="1184.000000pt" viewBox="0 0 1184.000000 1184.000000"
 preserveAspectRatio="xMidYMid meet">
<metadata>
Created by potrace 1.14, written by Peter Selinger 2001-2017
</metadata>
<g transform="translate(0.000000,1184.000000) scale(0.100000,-0.100000)"
fill="#000000" stroke="none">
<path d="M5629 11835 c-2 -1 -49 -6 -104 -9 -55 -3 -116 -8 -135 -11 -19 -2
-62 -7 -95 -10 -33 -4 -71 -8 -85 -10 -14 -2 -45 -6 -70 -9 -53 -7 -117 -17
-145 -22 -11 -2 -33 -6 -50 -9 -16 -3 -55 -10 -85 -17 -30 -6 -64 -12 -75 -14
-11 -2 -31 -6 -45 -9 -14 -3 -32 -8 -40 -10 -8 -2 -17 -4 -20 -5 -3 -1 -8 -2
-12 -1 -4 0 -19 -4 -33 -9 -14 -5 -40 -12 -58 -15 -73 -13 -345 -96 -492 -150
-55 -21 -106 -37 -112 -38 -7 0 -13 -4 -13 -9 0 -5 -4 -6 -10 -3 -5 3 -10 1
-10 -5 0 -6 -5 -8 -10 -5 -6 4 -18 1 -26 -6 -9 -7 -21 -14 -28 -15 -29 -4
-439 -203 -444 -216 -2 -4 -8 -8 -14 -8 -13 0 -131 -71 -140 -84 -4 -6 -8 -7
-8 -3 0 5 -7 1 -16 -7 -8 -9 -22 -16 -30 -16 -8 0 -14 -4 -14 -10 0 -5 -16
-16 -35 -24 -19 -8 -35 -20 -35 -26 0 -6 -4 -9 -9 -5 -6 3 -14 -3 -20 -12 -6
-10 -11 -13 -11 -8 0 6 -3 6 -8 0 -4 -6 -40 -35 -81 -65 -181 -133 -398 -333
-516 -475 -22 -26 -44 -53 -50 -59 -9 -10 -50 -65 -118 -158 -15 -20 -27 -41
-27 -46 0 -6 -3 -12 -7 -14 -5 -1 -20 -21 -34 -43 -92 -142 -104 -197 -85
-400 10 -112 32 -280 36 -280 1 0 3 -11 4 -25 2 -14 5 -36 9 -50 4 -14 9 -36
11 -50 11 -60 32 -138 53 -200 8 -25 16 -52 18 -60 8 -35 80 -202 126 -295 42
-83 149 -257 169 -275 3 -3 25 -32 50 -65 92 -122 102 -151 48 -139 -113 24
-464 360 -648 620 -27 38 -53 74 -57 79 -4 6 -17 28 -28 50 -11 22 -23 42 -27
43 -5 2 -8 9 -8 15 0 18 -47 73 -48 56 0 -8 -3 -24 -6 -36 -26 -100 -30 -128
-42 -268 -4 -56 -4 -663 1 -760 13 -277 22 -349 65 -560 6 -27 12 -59 14 -70
10 -50 46 -184 64 -235 3 -8 6 -18 7 -22 2 -5 4 -11 5 -15 1 -5 2 -11 1 -15 0
-5 4 -8 9 -8 6 0 10 -6 10 -12 0 -14 45 -62 97 -104 18 -14 33 -23 33 -19 0 3
15 -5 33 -19 19 -15 39 -26 45 -26 7 0 12 -4 12 -9 0 -5 8 -11 18 -14 22 -8
141 -73 159 -88 7 -6 13 -9 13 -5 0 3 15 -3 34 -13 18 -11 42 -24 52 -30 53
-30 254 -105 254 -95 0 4 6 2 13 -3 9 -8 68 -24 89 -24 2 0 21 -4 43 -10 22
-5 65 -12 95 -14 30 -3 71 -7 90 -10 35 -5 174 -14 305 -20 200 -10 275 -23
275 -48 0 -29 -172 -85 -342 -111 -21 -3 -53 -8 -71 -11 -67 -11 -216 -26
-282 -29 -28 -1 -55 -4 -60 -7 -24 -12 -437 6 -510 21 -5 1 -23 2 -38 1 -24
-1 -26 -3 -15 -15 7 -7 20 -24 28 -36 8 -12 22 -30 30 -40 8 -9 33 -39 55 -66
71 -86 188 -198 309 -296 111 -91 389 -278 413 -278 7 0 13 -4 13 -10 0 -5 6
-10 14 -10 8 0 16 -3 18 -7 2 -5 23 -19 48 -32 93 -48 377 -190 420 -209 113
-50 234 -102 250 -107 3 -1 17 -7 31 -13 58 -24 208 -74 273 -92 54 -14 97
-18 200 -16 72 2 142 6 156 9 14 3 41 8 60 11 42 7 62 11 120 26 25 6 52 12
61 14 31 4 224 71 230 79 3 5 8 7 10 6 2 -1 20 3 39 11 19 7 37 14 40 15 3 1
18 7 33 13 16 7 33 12 38 12 5 0 9 5 9 10 0 6 5 10 11 10 35 0 384 204 435
255 6 6 31 27 54 46 24 18 51 41 60 49 45 41 143 110 155 110 10 0 -1 -61 -15
-92 -7 -16 -17 -28 -22 -28 -4 0 -8 -5 -8 -11 0 -11 -26 -48 -110 -153 -86
-109 -124 -150 -286 -311 -166 -166 -219 -215 -232 -215 -4 0 -14 -9 -22 -19
-7 -11 -17 -18 -22 -15 -4 3 -11 -2 -14 -10 -3 -9 -12 -16 -18 -16 -15 0 -76
-62 -76 -77 0 -5 26 -18 58 -27 87 -27 189 -55 269 -76 39 -10 76 -21 82 -24
5 -3 22 -8 38 -10 30 -5 400 -101 523 -136 41 -12 80 -23 85 -24 74 -20 435
-131 465 -143 8 -3 17 -7 20 -8 3 0 30 -9 60 -20 30 -11 57 -19 60 -20 9 -1
121 -45 255 -100 105 -43 227 -105 237 -120 5 -6 8 -6 8 0 0 6 3 6 8 0 4 -6
23 -22 42 -35 95 -65 261 -223 308 -293 13 -20 28 -37 32 -37 4 0 13 -14 20
-30 7 -17 15 -30 19 -30 4 0 12 -12 18 -28 6 -15 19 -40 29 -57 9 -16 21 -38
26 -48 14 -29 39 -147 33 -157 -4 -6 -3 -10 2 -10 17 0 17 -271 -1 -390 -9
-61 -37 -173 -46 -185 -3 -5 -14 -31 -24 -56 -28 -77 -97 -186 -158 -251 -16
-16 -28 -33 -28 -38 0 -6 -3 -10 -7 -10 -5 0 -30 -21 -58 -45 -27 -25 -57 -51
-65 -58 -31 -27 -168 -107 -240 -141 -61 -28 -234 -91 -275 -100 -173 -40
-259 -47 -587 -49 -138 -1 -248 2 -248 7 0 4 -6 3 -13 -3 -8 -6 -17 -8 -20 -5
-3 4 -39 8 -79 10 -40 1 -73 3 -73 4 0 1 -27 3 -60 6 -33 2 -75 6 -92 9 -18 3
-50 7 -70 10 -21 3 -49 8 -63 11 -14 3 -36 8 -50 10 -14 2 -36 7 -50 11 -14 3
-29 7 -35 8 -135 32 -516 161 -523 178 -2 4 -9 7 -17 7 -16 0 -73 24 -238 100
-49 22 -93 40 -98 40 -5 0 -9 5 -9 10 0 6 -7 10 -15 10 -15 0 -283 136 -375
190 -28 17 -52 30 -54 30 -2 0 -34 18 -70 40 -36 22 -70 40 -76 40 -5 0 -10 5
-10 10 0 6 -5 10 -11 10 -6 0 -30 14 -54 30 -24 17 -48 30 -54 30 -6 0 -11 5
-11 10 0 6 -7 10 -15 10 -8 0 -15 5 -15 10 0 6 -5 10 -10 10 -13 0 -253 161
-258 172 -2 4 -8 8 -14 8 -6 0 -30 16 -54 35 -23 19 -47 35 -52 35 -6 0 -12 3
-14 8 -1 4 -41 36 -88 71 -82 62 -133 102 -175 139 -82 70 -243 192 -255 192
-5 0 -10 4 -10 8 0 5 -18 18 -41 30 l-41 22 -56 -59 c-67 -69 -142 -152 -142
-156 0 -2 -16 -20 -35 -41 -19 -20 -45 -50 -57 -66 -13 -16 -39 -46 -58 -67
-19 -22 -45 -52 -57 -67 -12 -16 -34 -43 -50 -60 -15 -17 -64 -75 -108 -129
-44 -54 -95 -114 -112 -133 -18 -19 -33 -38 -33 -41 0 -4 -17 -25 -37 -47 -21
-22 -50 -57 -65 -76 -15 -20 -33 -42 -41 -50 -7 -7 -30 -35 -52 -63 -22 -27
-48 -57 -57 -66 -10 -9 -18 -21 -18 -27 0 -6 -4 -12 -9 -14 -4 -1 -35 -37 -69
-78 -33 -41 -69 -84 -79 -95 -10 -11 -36 -42 -57 -70 -22 -27 -43 -51 -48 -53
-4 -2 -8 -9 -8 -15 0 -7 -9 -18 -20 -25 -11 -7 -20 -17 -20 -23 0 -7 -6 -17
-14 -23 -23 -19 -147 -186 -164 -223 -15 -32 -15 -36 2 -68 24 -43 104 -120
241 -229 137 -109 133 -106 175 -136 19 -14 42 -30 50 -37 15 -12 128 -94 170
-123 12 -8 48 -34 81 -57 32 -24 63 -43 68 -43 5 0 11 -3 13 -7 3 -9 185 -133
194 -133 3 0 10 -5 17 -11 18 -16 176 -117 229 -147 27 -15 48 -30 48 -34 0
-5 5 -8 10 -8 6 0 36 -16 66 -35 30 -19 57 -35 59 -35 3 0 24 -12 48 -27 91
-58 400 -213 572 -288 17 -7 51 -22 77 -34 26 -11 50 -21 53 -21 3 0 25 -9 49
-21 25 -11 51 -22 58 -23 7 -1 30 -10 52 -19 21 -9 42 -17 45 -17 4 0 26 -9
49 -20 22 -11 47 -20 55 -20 7 0 18 -5 25 -12 7 -7 12 -9 12 -6 0 3 30 -5 68
-19 37 -14 74 -26 82 -26 8 -1 17 -4 20 -7 6 -6 148 -52 250 -80 255 -71 330
-91 361 -94 15 -2 31 -6 36 -9 5 -3 25 -9 44 -12 19 -3 54 -11 79 -16 78 -18
209 -43 284 -55 21 -3 48 -8 60 -10 68 -13 171 -28 266 -38 25 -3 45 -6 45 -6
0 -1 19 -4 43 -6 23 -2 61 -6 85 -8 23 -2 42 -5 42 -6 0 0 27 -3 59 -6 33 -2
89 -7 125 -10 91 -8 854 -13 866 -6 6 4 35 8 65 9 78 4 165 10 165 13 0 1 18
3 40 5 53 4 144 14 175 20 14 2 43 7 65 10 42 6 243 40 285 49 78 17 130 27
135 27 2 0 23 6 45 14 22 8 44 14 48 14 11 0 105 22 122 28 8 3 22 7 30 9 55
11 388 127 430 149 14 7 27 13 30 13 41 2 442 201 532 263 14 11 28 19 31 19
10 0 162 103 165 112 2 4 8 8 13 8 6 0 15 5 22 10 7 6 46 36 87 68 41 31 77
60 78 64 2 5 8 8 13 8 5 0 17 8 28 18 10 9 49 44 87 77 66 57 324 312 324 319
0 4 28 37 97 115 18 20 33 42 33 49 0 6 4 12 9 12 11 0 158 215 219 321 43 77
152 292 152 302 0 3 10 26 22 53 12 27 23 58 25 68 2 11 8 25 14 33 6 7 8 13
4 13 -4 0 -3 6 2 13 6 6 16 35 23 62 7 28 16 55 20 60 10 15 44 150 85 349 2
10 7 37 9 60 3 22 8 52 10 66 6 31 12 85 23 192 15 163 8 642 -13 774 -3 17
-7 51 -9 75 -5 53 -13 112 -21 158 -3 19 -8 53 -10 75 -3 23 -7 49 -10 58 -3
10 -7 30 -10 45 -11 62 -65 277 -90 355 -38 120 -115 308 -145 358 -5 8 -23
42 -40 75 -18 33 -49 86 -70 117 -22 31 -39 61 -39 67 0 5 -4 11 -8 13 -4 2
-23 26 -42 53 -19 28 -37 52 -40 55 -3 3 -38 45 -79 93 -79 96 -285 306 -341
348 -19 15 -44 35 -55 45 -41 39 -162 132 -225 174 -36 25 -67 47 -70 50 -3 3
-23 17 -45 30 -22 13 -42 26 -45 29 -8 9 -176 110 -255 153 -66 37 -354 181
-365 183 -3 1 -21 8 -40 17 -19 9 -69 30 -110 48 -41 17 -88 37 -105 45 -16 7
-41 16 -55 20 -14 4 -30 11 -36 16 -6 5 -19 10 -30 12 -10 2 -35 10 -54 19
-19 8 -91 34 -160 57 -69 23 -134 46 -145 50 -18 8 -102 34 -115 37 -3 0 -12
3 -20 7 -15 6 -140 45 -170 52 -8 3 -46 13 -85 24 -145 41 -256 71 -280 75
-13 3 -28 7 -33 10 -5 3 -19 7 -33 10 -32 7 -44 10 -178 46 -63 17 -124 32
-135 35 -12 2 -61 16 -111 30 -49 14 -99 27 -110 30 -11 2 -76 21 -145 41 -69
20 -129 37 -135 38 -5 2 -17 6 -25 9 -8 3 -54 17 -101 31 -48 13 -96 29 -108
35 -12 7 -21 9 -21 7 0 -3 -12 -1 -27 5 -16 6 -35 12 -43 14 -8 2 -51 16 -95
30 -44 15 -84 28 -90 29 -10 3 -20 6 -60 22 -11 4 -23 6 -27 6 -5 -1 -8 2 -8
6 0 4 -9 8 -21 9 -21 2 -135 42 -196 69 -17 8 -34 14 -38 14 -8 0 -50 19 -172
76 -50 24 -95 44 -101 44 -5 0 -12 7 -16 15 -3 8 -9 14 -13 13 -7 -3 -82 39
-93 52 -3 3 -24 18 -46 33 -39 26 -54 39 -131 108 -15 14 -44 45 -63 69 -19
24 -41 49 -48 56 -36 37 -107 196 -138 309 -32 115 -37 325 -10 445 34 152 70
243 143 358 10 15 20 29 23 32 3 3 18 22 34 44 34 45 107 118 166 167 23 19
48 40 55 47 8 6 16 12 19 12 3 0 24 13 48 29 70 46 175 101 182 94 3 -4 6 0 6
7 0 7 3 10 7 7 3 -4 11 -3 17 2 6 5 56 23 111 41 100 32 118 37 165 46 14 2
48 9 75 14 121 24 509 27 706 5 24 -3 76 -8 114 -11 39 -2 84 -7 100 -9 52 -8
109 -15 145 -20 48 -6 89 -13 130 -20 19 -4 46 -9 60 -11 14 -3 43 -10 65 -16
22 -6 47 -12 55 -13 8 -2 15 -4 15 -5 0 -1 14 -4 30 -6 17 -3 37 -7 45 -11 8
-3 24 -8 35 -10 31 -7 38 -9 68 -21 16 -7 32 -12 36 -12 14 0 165 -49 183 -60
10 -6 22 -10 27 -10 5 0 22 -5 38 -12 15 -6 30 -12 33 -13 10 -3 47 -18 125
-48 44 -18 82 -32 85 -33 8 -1 58 -23 118 -50 31 -14 98 -44 147 -66 50 -22
94 -44 100 -49 5 -5 17 -9 26 -9 10 0 19 -4 21 -8 3 -8 94 -53 104 -51 4 0 10
-5 15 -12 4 -7 15 -14 24 -15 9 -1 22 -7 29 -13 8 -7 33 -22 57 -34 24 -13 69
-37 101 -54 64 -36 340 -211 348 -221 3 -4 24 -20 46 -35 23 -15 56 -41 75
-57 18 -17 35 -30 38 -30 8 0 171 -158 171 -165 0 -3 12 -18 28 -33 15 -15 43
-49 62 -77 19 -27 37 -52 40 -55 11 -11 50 -70 50 -75 0 -4 13 -25 28 -48 33
-49 99 -185 132 -272 12 -33 26 -69 30 -80 38 -98 66 -270 75 -455 3 -73 10
-109 24 -123 11 -11 101 31 108 50 3 7 9 13 14 13 10 0 52 42 131 131 75 84
69 76 143 176 36 49 68 93 73 98 5 6 22 32 38 59 16 26 37 60 46 74 27 42 129
242 123 242 -3 0 1 10 9 23 11 17 33 81 36 107 0 3 6 30 13 60 17 73 20 129
21 355 0 255 -10 366 -49 514 -29 112 -112 311 -156 372 -10 14 -16 29 -12 33
3 3 1 6 -6 6 -7 0 -9 5 -6 10 3 6 2 10 -3 10 -5 0 -12 8 -15 18 -4 9 -16 34
-29 54 -83 132 -109 181 -101 187 5 3 18 21 28 39 11 17 23 32 27 32 4 0 8 7
8 15 0 8 5 15 10 15 6 0 10 5 10 10 0 6 5 16 10 23 6 7 33 44 60 82 28 39 54
75 60 82 5 7 10 14 10 17 0 5 63 104 77 121 5 6 22 35 38 67 l29 56 -42 46
c-23 25 -42 44 -42 41 0 -2 -12 7 -27 22 -16 14 -48 39 -73 56 -25 17 -48 35
-51 40 -4 5 -15 14 -26 20 -11 7 -88 58 -171 115 -84 56 -156 102 -161 102 -5
0 -11 3 -13 8 -5 10 -173 112 -187 112 -6 0 -11 3 -11 8 0 4 -20 16 -45 27
-25 11 -45 24 -45 28 0 5 -4 6 -9 3 -5 -4 -11 -2 -13 2 -5 14 -472 240 -510
247 -11 2 -25 8 -32 13 -6 5 -60 28 -121 52 -60 23 -123 48 -140 55 -16 6 -59
22 -95 35 -36 12 -72 25 -80 28 -8 3 -17 6 -20 7 -24 6 -59 18 -75 25 -21 9
-123 43 -140 46 -5 1 -57 16 -115 34 -58 17 -109 33 -115 34 -5 1 -16 5 -22 9
-7 5 -13 6 -13 3 0 -2 -29 4 -65 14 -36 10 -66 19 -68 19 -1 0 -9 2 -17 4 -34
11 -157 40 -190 44 -19 3 -37 9 -38 14 -2 5 -8 7 -13 4 -5 -4 -37 1 -71 9
-116 28 -183 41 -205 40 -13 -1 -23 2 -23 6 0 3 -12 7 -27 7 -16 1 -53 6 -83
12 -30 5 -71 12 -90 15 -91 15 -170 26 -225 32 -33 3 -73 8 -90 10 -16 2 -52
6 -80 8 -58 6 -154 14 -240 22 -66 6 -691 15 -696 9z m3235 -975 c105 -39 232
-112 330 -189 33 -27 178 -173 236 -240 58 -66 173 -223 188 -256 5 -11 15
-32 22 -47 15 -31 7 -63 -12 -51 -7 4 -18 8 -24 9 -6 1 -53 22 -105 47 -140
68 -304 128 -384 143 -16 3 -55 12 -85 20 -30 8 -68 17 -85 20 -16 4 -38 10
-48 15 -9 6 -21 8 -26 5 -13 -8 -50 32 -57 62 -3 15 -10 41 -14 57 -7 26 -12
52 -25 130 -2 11 -6 36 -10 55 -3 19 -8 75 -12 124 -5 76 -3 91 11 101 18 14
54 12 100 -5z"/>
</g>
</svg>
