<svg width="1579" height="1579" viewBox="0 0 1579 1579" fill="none" xmlns="http://www.w3.org/2000/svg">
<g clip-path="url(#clip0_3091_611)">
<path d="M1551 771.954C1551 726.95 1547.48 682.837 1540.76 639.917C1540.74 639.694 1540.74 639.452 1540.7 639.229C1540.6 638.602 1540.48 637.975 1540.38 637.348C1534.75 602.094 1526.98 567.669 1517.17 534.235C1513.06 519.753 1508.65 505.332 1503.83 491.032C1476.09 408.59 1433.89 334.056 1380.47 265.732C1292.91 153.739 1183.47 71.9244 1047.95 26.375C1038.06 23.0579 1028.12 20.1049 1018.11 17.4957C983.887 6.47239 942.383 0 897.641 0C874.855 0 852.919 1.67878 832.339 4.79361C813.277 6.73533 794.437 10.3154 775.82 15.0888C728.589 27.184 683.726 44.3763 645.743 76.3742C632.509 87.5188 622.573 101.596 610.472 113.692C586.978 137.194 557.879 153.254 531.471 172.914C519.734 181.631 507.774 190.167 498 200.907C484.807 210.959 476.469 225.644 476.469 241.986C476.469 250.401 478.675 258.37 482.621 265.51C486.689 274.005 493.407 281.124 499.801 288.749C495.795 289.639 493.225 290.084 490.635 290.469C489.036 290.813 487.842 290.995 486.972 291.197C474.324 294.13 465.036 295.545 452.348 298.256C450.608 298.62 450.082 298.741 446.682 299.692C445.832 299.914 445.043 300.137 444.416 300.299C320.126 333.025 217.429 399.367 142.596 503.774C71.7296 602.681 36.6 715.341 29.2745 836.799C24.8833 909.573 31.7433 980.951 51.6151 1051.18C82.7785 1161.39 133.672 1260.54 213.078 1344.19C304.909 1440.94 416.045 1506.08 542.52 1546.01C599.221 1563.91 657.925 1571.7 717.014 1576.13C729.075 1577.04 741.156 1577.69 753.237 1578.03C789.803 1580.27 831.489 1578.64 875.3 1572.47C910.147 1567.57 942.909 1560.29 972.231 1551.37C985.951 1547.57 999.529 1543.24 1012.95 1538.43C1238.78 1457.14 1399.21 1306.41 1492.27 1084.97C1516.03 1028.42 1532.71 969.705 1540.64 908.703C1540.48 908.339 1540.34 907.995 1540.19 907.651C1544.71 879.638 1547.84 851.099 1549.52 822.115C1550.72 809.17 1551.12 796.225 1550.9 783.24C1550.94 779.478 1550.98 775.716 1550.98 771.954H1551ZM787.78 182.562C780.697 185.009 772.582 186.142 762.991 185.98C750.687 185.98 741.52 180.418 736.178 167.048C735.409 165.107 734.822 163.145 734.377 161.142C749.473 169.597 767.523 176.838 787.78 182.562ZM1358.39 768.455C1354.61 841.289 1343.03 912.526 1310.84 979.009C1299.02 1003.38 1287.18 1027.73 1275.24 1052.05C1273.75 1050.81 1272.35 1050.65 1271.3 1052.51C1260.17 1071.93 1254.91 1085.1 1242.89 1103.1C1241.77 1104.61 1240.48 1106.35 1239.04 1108.3C1216.66 1138.37 1198.75 1161.29 1196.2 1164.5C1137.07 1239.18 1063.92 1277 1063.92 1277C1017.19 1305.36 966.038 1326.54 910.45 1340.53C909.196 1340.86 908.022 1341.54 906.828 1342.07C908.811 1345.95 905.25 1344.52 903.995 1344.82C863.948 1354.53 824.002 1364.36 782.64 1367.29C759.874 1368.91 737.169 1371.54 714.323 1370.83C660.839 1369.17 608.185 1362.09 556.746 1346.82C492.294 1327.69 432.699 1298.83 379.438 1257.65C330.204 1219.58 290.298 1173.24 259.519 1119.14C230.218 1067.64 214.454 1011.69 205.813 953.524C203.709 939.305 202.798 924.884 201.422 910.564C201.199 908.278 200.896 905.791 203.102 904.051C199.702 881.762 195.796 859.533 194.845 836.941C194.946 818.353 194.946 821.022 194.946 818.353C194.946 798.996 194.4 796.225 194.42 776.869C194.42 774.219 194.299 771.873 194.744 766.594C200.633 683.403 222.973 605.047 268.889 535.105C328.929 443.622 406.129 370.504 506.378 323.7C509.758 322.123 512.935 320.788 517.366 318.684C520.199 317.43 519.491 317.815 522.142 316.641C523.397 316.095 523.579 315.994 524.833 315.367C525.704 314.801 525.461 315.003 526.209 314.336C527.95 312.778 527.606 313.122 529.144 311.463L529.204 311.423C529.204 311.423 529.204 311.423 529.184 311.423C529.508 311.099 529.832 310.776 530.135 310.472C530.783 309.825 531.005 308.875 530.722 308.005C529.447 304.121 528.537 303.434 519.835 296.901C533.636 299.914 544.563 302.888 555.855 304.02C574.31 305.881 592.624 305.214 611.099 304.202C637.305 302.786 663.612 301.472 689.736 307.883C674.701 311.039 659.625 314.093 644.63 317.43C640.28 318.401 636.071 319.918 631.983 321.718C628.421 323.296 623.646 324.489 624.192 329.708C624.738 334.946 629.656 334.44 633.379 335.735C638.964 337.677 625.811 338.749 638.883 339.821C653.979 341.034 675.915 341.985 688.583 341.216C756.798 336.969 821.675 319.291 884.022 291.783C885.216 291.257 886.248 290.893 887.361 290.206C890.174 288.608 888.717 289.478 891.894 287.859C897.762 285.372 896.791 285.493 903.529 283.207C924.797 268.584 944.406 252.019 963.731 234.826C986.517 214.539 1014.93 214.883 1043.1 221.558C1074.24 228.941 1100.06 246.74 1125.32 265.327C1201.87 321.657 1257.56 394.856 1297.3 480.433C1324.03 537.957 1341.9 598.271 1350.87 661.256C1355.92 696.894 1360.3 732.553 1358.41 768.535L1358.39 768.455Z" fill="#1B1B1D"/>
<path d="M903.53 283.147C903.53 283.147 903.489 283.167 903.469 283.188L903.53 283.147Z" fill="#7277D4"/>
<path d="M531.186 309.461V309.34C531.186 309.34 531.186 309.36 531.167 309.38C531.167 309.421 531.167 309.441 531.186 309.461Z" fill="#7277D4"/>
<path d="M1263.81 1066.16C1268.08 1058.05 1267.74 1058.86 1268.83 1056.9C1302.36 991.388 1323.43 922.235 1330.47 848.914C1343.84 709.536 1315.74 579.987 1235.44 464.09C1174.87 376.673 1095.04 313.567 991.88 282.419C969.054 275.521 946.065 272.123 922.369 277.22C915.873 278.616 910.653 279.688 903.469 283.187C924.757 268.543 944.386 251.978 963.711 234.766C986.497 214.479 1014.91 214.823 1043.08 221.497C1074.22 228.88 1100.04 246.679 1125.3 265.267C1201.85 321.597 1257.54 394.795 1297.28 480.373C1324.01 537.896 1341.88 598.211 1350.85 661.195C1355.9 696.834 1360.28 732.492 1358.39 768.475C1354.61 841.309 1343.03 912.546 1310.84 979.03C1298.56 1004.37 1286.25 1029.72 1273.83 1054.98C1272.27 1058.15 1268.06 1064.95 1263.81 1066.18V1066.16Z" fill="#2A2A2A"/>
<path d="M203.061 904.031C245.172 1105.04 365.657 1239.93 553.123 1318.18C574.452 1327.08 596.752 1333.21 618.971 1339.56C647.484 1347.71 676.664 1352.97 705.925 1356.17C736.137 1359.46 766.714 1358.39 797.21 1357.89C834.626 1357.28 870.403 1348.16 906.808 1342.07C908.791 1345.95 905.209 1344.52 903.975 1344.82C863.928 1354.53 823.982 1364.36 782.619 1367.29C759.854 1368.91 737.149 1371.54 714.303 1370.83C660.819 1369.17 608.165 1362.09 556.725 1346.82C492.274 1327.69 432.679 1298.83 379.418 1257.65C330.184 1219.58 290.278 1173.24 259.499 1119.14C230.198 1067.64 214.434 1011.7 205.793 953.525C203.688 939.306 202.778 924.884 201.402 910.544C201.179 908.258 200.876 905.77 203.081 904.031H203.061Z" fill="#2A2A2A"/>
<path d="M762.991 185.98C750.688 185.98 741.521 180.418 736.178 167.048C730.553 152.971 733.689 136.83 745.77 126.576C759.814 114.662 775.618 106.997 794.923 113.57C817.588 121.276 825.156 149.714 809.352 167.817C798.202 180.559 784.117 186.324 763.011 186L762.991 185.98Z" fill="#2A2A2A"/>
<path d="M773.918 1267.13C1023.81 1267.13 1226.39 1064.65 1226.39 814.874C1226.39 565.099 1023.81 362.616 773.918 362.616C524.022 362.616 321.441 565.099 321.441 814.874C321.441 1064.65 524.022 1267.13 773.918 1267.13Z" fill="#1B1B1D"/>
<path d="M650.438 339.881C635.544 340.589 621.055 337.758 606.728 334.238C599.524 332.478 593.453 333.47 586.796 337.11C565.993 348.558 548.165 363.546 530.803 381.83C529.184 358.894 537.764 344.634 546.931 325.905C548.57 318.077 547.659 314.416 539.707 311.565C535.194 309.967 532.988 309.926 529.204 311.342C529.791 305.861 511.032 295.04 499.842 288.689C513.643 291.702 544.563 302.786 555.855 303.919C574.31 305.78 592.624 305.112 611.099 304.101C637.305 302.685 663.612 301.371 689.736 307.782C674.6 310.958 659.423 314.032 644.327 317.39C640.097 318.34 635.949 319.857 631.983 321.617C628.421 323.195 623.645 324.388 624.192 329.606C624.738 334.845 629.656 334.339 633.379 335.634C638.964 337.575 636.597 337.474 650.458 339.841L650.438 339.881Z" fill="#2A2A2A"/>
<path d="M582.587 232.339C587.019 232.581 591.309 231.509 593.191 235.757C595.174 240.247 593.454 244.049 590.034 247.488C585.967 251.574 581.576 254.951 576.274 257.399C569.292 260.635 565.569 256.57 562.088 251.735C558.325 246.497 560.51 242.047 564.739 238.609C570.082 234.26 576.557 232.521 582.587 232.339Z" fill="#2A2A2A"/>
<path d="M553.447 1060.38C515.788 1047.94 484.989 1026.34 463.276 992.723C447.229 967.885 438.143 940.762 438.082 911.009C437.94 845.982 438.952 780.954 437.779 715.947C436.423 640.301 495.795 564.595 578.156 555.736C578.803 555.675 579.39 555.23 580.017 554.967C585.724 554.724 591.43 554.299 597.157 554.299C674.62 554.259 752.084 554.077 829.547 554.36C875.665 554.522 921.803 553.187 967.921 555.291C1040.97 566.314 1092.84 614.735 1108.46 686.822C1111.03 698.674 1111.84 710.749 1111.8 722.925C1111.68 779.195 1110.08 835.525 1112.16 891.713C1115.08 970.029 1062 1047.94 974.153 1062.4C966.079 1062.79 958.025 1063.49 949.951 1063.51C864.353 1063.68 778.755 1063.74 693.157 1063.82C678.951 1069.68 669.015 1081.33 657.319 1090.54C634.432 1108.56 612.152 1127.33 589.589 1145.75C579.37 1154.11 572.145 1153.1 564.678 1142.4C562.635 1120.63 564.314 1098.81 563.727 1077.03C563.606 1072.15 564.84 1066.73 559.559 1063.39L559.66 1063.47C558.365 1060.91 555.572 1061.33 553.447 1060.38ZM929.756 843.595C954.1 843.716 972.19 826.14 972.352 802.253C972.514 778.77 954.079 759.292 931.071 758.625C907.658 757.937 887.058 778.224 887.179 801.828C887.301 825.472 905.655 843.494 929.756 843.595ZM617.029 843.595C641.332 843.797 660.152 825.755 660.658 801.787C661.123 779.68 641.13 759.211 618.567 758.685C595.134 758.159 575.565 777.496 575.464 801.302C575.363 825.513 592.948 843.393 617.029 843.595ZM774.424 843.635C798.404 843.635 816.556 825.573 816.596 801.727C816.657 778.001 796.886 758.2 773.676 758.726C751.052 759.252 731.443 779.357 731.524 801.929C731.625 824.845 750.951 843.635 774.404 843.635H774.424Z" fill="#6D6D6D"/>
<path d="M929.756 843.595C905.655 843.474 887.301 825.472 887.179 801.828C887.058 778.204 907.658 757.937 931.071 758.625C954.079 759.292 972.514 778.79 972.353 802.253C972.191 826.16 954.1 843.716 929.756 843.595Z" fill="#2A2A2A"/>
<path d="M617.029 843.575C592.928 843.373 575.363 825.493 575.464 801.282C575.565 777.476 595.134 758.139 618.567 758.665C641.13 759.171 661.123 779.66 660.658 801.767C660.152 825.756 641.332 843.777 617.029 843.575Z" fill="#2A2A2A"/>
<path d="M774.445 843.615C750.991 843.615 731.666 824.825 731.565 801.909C731.464 779.336 751.093 759.231 773.716 758.706C796.927 758.18 816.677 777.961 816.637 801.707C816.576 825.553 798.425 843.595 774.465 843.615H774.445Z" fill="#2A2A2A"/>
</g>
<defs>
<clipPath id="clip0_3091_611">
<rect width="1523" height="1579" fill="white" transform="translate(28)"/>
</clipPath>
</defs>
</svg>
