<svg width="56" height="56" viewBox="0 0 56 56" fill="none" xmlns="http://www.w3.org/2000/svg">
<circle cx="28" cy="28" r="28" fill="url(#paint0_linear_881_302)"/>
<path fill-rule="evenodd" clip-rule="evenodd" d="M37.8 25.3866C36.8933 20.7866 32.8533 17.3333 28 17.3333C24.1467 17.3333 20.8 19.52 19.1333 22.72C15.12 23.1466 12 26.5466 12 30.6666C12 35.08 15.5867 38.6666 20 38.6666H37.3333C41.0133 38.6666 44 35.68 44 32C44 28.48 41.2667 25.6266 37.8 25.3866ZM37.3333 36H20C17.0533 36 14.6667 33.6133 14.6667 30.6666C14.6667 27.9333 16.7067 25.6533 19.4133 25.3733L20.84 25.2266L21.5067 23.96C22.7733 21.52 25.2533 20 28 20C31.4933 20 34.5067 22.48 35.1867 25.9066L35.5867 27.9066L37.6267 28.0533C39.7067 28.1866 41.3333 29.9333 41.3333 32C41.3333 34.2 39.5333 36 37.3333 36ZM26.0667 29.3333H22.6667L28 24L33.3333 29.3333H29.9333V33.3333H26.0667V29.3333Z" fill="white"/>
<defs>
<linearGradient id="paint0_linear_881_302" x1="0" y1="28" x2="56" y2="28" gradientUnits="userSpaceOnUse">
<stop stop-color="#FD82D2"/>
<stop offset="1" stop-color="#5F25BD"/>
</linearGradient>
</defs>
</svg>
