<svg width="56" height="56" viewBox="0 0 56 56" fill="none" xmlns="http://www.w3.org/2000/svg">
<circle cx="28" cy="28" r="28" fill="url(#paint0_linear_881_280)"/>
<path fill-rule="evenodd" clip-rule="evenodd" d="M35.9999 33V26.3333C35.9999 22.24 33.8266 18.8133 29.9999 17.9067V17C29.9999 15.8933 29.1066 15 27.9999 15C26.8933 15 25.9999 15.8933 25.9999 17V17.9067C22.1866 18.8133 19.9999 22.2267 19.9999 26.3333V33L17.3333 35.6667V37H38.6666V35.6667L35.9999 33ZM27.9999 41C29.4666 41 30.6666 39.8 30.6666 38.3333H25.3333C25.3333 39.8 26.5333 41 27.9999 41ZM22.6666 34.3333H33.3333V26.3333C33.3333 23.0267 31.3199 20.3333 27.9999 20.3333C24.6799 20.3333 22.6666 23.0267 22.6666 26.3333V34.3333Z" fill="white"/>
<defs>
<linearGradient id="paint0_linear_881_280" x1="0" y1="28" x2="56" y2="28" gradientUnits="userSpaceOnUse">
<stop stop-color="#FD82D2"/>
<stop offset="1" stop-color="#5F25BD"/>
</linearGradient>
</defs>
</svg>
