<svg width="56" height="56" viewBox="0 0 56 56" fill="none" xmlns="http://www.w3.org/2000/svg">
<circle cx="28" cy="28" r="28" fill="url(#paint0_linear_881_149)"/>
<path fill-rule="evenodd" clip-rule="evenodd" d="M15.9999 20H39.9999V17.3333H15.9999C14.5333 17.3333 13.3333 18.5333 13.3333 20V36C13.3333 37.4666 14.5333 38.6666 15.9999 38.6666H21.3333V36H15.9999V20ZM29.3333 28H23.9999V30.3733C23.1866 31.1066 22.6666 32.1466 22.6666 33.3333C22.6666 34.52 23.1866 35.56 23.9999 36.2933V38.6666H29.3333V36.2933C30.1466 35.56 30.6666 34.5066 30.6666 33.3333C30.6666 32.16 30.1466 31.1066 29.3333 30.3733V28ZM24.6666 33.3333C24.6666 34.44 25.5599 35.3333 26.6666 35.3333C27.7733 35.3333 28.6666 34.44 28.6666 33.3333C28.6666 32.2266 27.7733 31.3333 26.6666 31.3333C25.5599 31.3333 24.6666 32.2266 24.6666 33.3333ZM41.3333 22.6666H33.3333C32.6666 22.6666 31.9999 23.3333 31.9999 24V37.3333C31.9999 38 32.6666 38.6666 33.3333 38.6666H41.3333C41.9999 38.6666 42.6666 38 42.6666 37.3333V24C42.6666 23.3333 41.9999 22.6666 41.3333 22.6666ZM34.6666 36H39.9999V25.3333H34.6666V36Z" fill="white"/>
<defs>
<linearGradient id="paint0_linear_881_149" x1="0" y1="28" x2="56" y2="28" gradientUnits="userSpaceOnUse">
<stop stop-color="#FD82D2"/>
<stop offset="1" stop-color="#5F25BD"/>
</linearGradient>
</defs>
</svg>
