<svg width="56" height="56" viewBox="0 0 56 56" fill="none" xmlns="http://www.w3.org/2000/svg">
<circle cx="28" cy="28" r="28" fill="url(#paint0_linear_881_211)"/>
<path fill-rule="evenodd" clip-rule="evenodd" d="M30.6833 13.3333H17.35C15.8833 13.3333 14.6833 14.5333 14.6833 16V40C14.6833 41.4666 15.8833 42.6666 17.35 42.6666H30.6833C32.15 42.6666 33.35 41.4666 33.35 40V16C33.35 14.5333 32.15 13.3333 30.6833 13.3333ZM37.4833 23.6L38.8167 22.2666C42.15 25.4666 42.15 30.5333 38.8167 33.6L37.4833 32.2666C39.8833 29.7333 39.8833 26 37.4833 23.6ZM34.6833 26.4L36.0167 25.0666C37.6167 26.8 37.6167 29.2 36.0167 30.8L34.6833 29.4666C35.35 28.5333 35.35 27.3333 34.6833 26.4ZM17.35 38.6666H30.6833V17.3333H17.35V38.6666Z" fill="white"/>
<defs>
<linearGradient id="paint0_linear_881_211" x1="0" y1="28" x2="56" y2="28" gradientUnits="userSpaceOnUse">
<stop stop-color="#FD82D2"/>
<stop offset="1" stop-color="#5F25BD"/>
</linearGradient>
</defs>
</svg>
