<svg width="56" height="56" viewBox="0 0 56 56" fill="none" xmlns="http://www.w3.org/2000/svg">
<circle cx="28" cy="28" r="28" fill="url(#paint0_linear_881_78)"/>
<path fill-rule="evenodd" clip-rule="evenodd" d="M24.0001 28C26.5734 28 28.6667 25.9067 28.6667 23.3334C28.6667 20.76 26.5734 18.6667 24.0001 18.6667C21.4267 18.6667 19.3334 20.76 19.3334 23.3334C19.3334 25.9067 21.4267 28 24.0001 28ZM24.0001 21.3334C25.1067 21.3334 26.0001 22.2267 26.0001 23.3334C26.0001 24.44 25.1067 25.3334 24.0001 25.3334C22.8934 25.3334 22.0001 24.44 22.0001 23.3334C22.0001 22.2267 22.8934 21.3334 24.0001 21.3334ZM18.3601 34.6667H24.0667C24.0267 34.88 24.0001 35.1067 24.0001 35.3334V37.3334H14.6667V35.3334C14.6667 32.2267 20.8801 30.6667 24.0001 30.6667C24.7467 30.6667 25.6667 30.76 26.6401 30.9334C25.6934 31.5734 24.9067 32.3734 24.4534 33.3467C24.3801 33.3467 24.3034 33.3434 24.2267 33.34C24.1501 33.3367 24.0734 33.3334 24.0001 33.3334C21.9601 33.3334 19.6801 34 18.3601 34.6667ZM34.0001 31.3334C31.5467 31.3334 26.6667 32.68 26.6667 35.3334V37.3334H41.3334V35.3334C41.3334 32.68 36.4534 31.3334 34.0001 31.3334ZM37.3334 26C37.3334 27.2534 36.6267 28.3334 35.6134 28.9067C35.1334 29.1734 34.5867 29.3334 34.0001 29.3334C33.4134 29.3334 32.8667 29.1734 32.3867 28.9067C31.3734 28.3334 30.6667 27.2534 30.6667 26C30.6667 24.16 32.1601 22.6667 34.0001 22.6667C35.8401 22.6667 37.3334 24.16 37.3334 26Z" fill="white"/>
<defs>
<linearGradient id="paint0_linear_881_78" x1="0" y1="28" x2="56" y2="28" gradientUnits="userSpaceOnUse">
<stop stop-color="#FD82D2"/>
<stop offset="1" stop-color="#5F25BD"/>
</linearGradient>
</defs>
</svg>
