<svg xmlns="http://www.w3.org/2000/svg" viewBox="0 0 23.02 40"><defs><style>.cls-1{fill:#0361f2;}</style></defs><title>mobile</title><g id="Слой_2" data-name="Слой 2"><g id="Слой_1-2" data-name="Слой 1"><path class="cls-1" d="M20.35,0H2.68A2.7,2.7,0,0,0,0,2.7V37.3A2.7,2.7,0,0,0,2.68,40H20.35A2.69,2.69,0,0,0,23,37.3V2.7A2.7,2.7,0,0,0,20.35,0ZM8.68,2h5.66a.33.33,0,0,1,0,.65H8.68a.33.33,0,0,1,0-.65Zm2.83,36.7a1.35,1.35,0,1,1,1.34-1.35A1.35,1.35,0,0,1,11.51,38.65ZM21.16,35H1.86V4.28h19.3Z"/></g></g></svg>