<svg xmlns="http://www.w3.org/2000/svg" viewBox="0 0 41 37"><defs><style>.cls-1{fill:#0361f2;}</style></defs><title>ux</title><g id="Слой_2" data-name="Слой 2"><g id="Слой_1-2" data-name="Слой 1"><path class="cls-1" d="M40.4.58c-1.28-1.22-3.83-.53-8,2.19-3.58,2.3-4.45,2.42-8.67,6.45-6.25,6-11,11.84-12.58,15.46a6.87,6.87,0,0,0-.81-.22,6.57,6.57,0,0,0-4.88,1.09,6.76,6.76,0,0,0-2.74,3.82A11,11,0,0,1,.25,33.73a1,1,0,0,0,.09,1.38A8.09,8.09,0,0,0,5.65,37a9.92,9.92,0,0,0,5.55-1.76A11,11,0,0,0,12.74,34a6.14,6.14,0,0,0,1.78-5.28c3.72-1.27,10.2-6,16.73-12.23a37.89,37.89,0,0,0,6.86-8.19C40.94,4.24,41.67,1.8,40.4.58Zm-29.18,32a8.13,8.13,0,0,1-1.22,1,7,7,0,0,1-7.49.57,12.7,12.7,0,0,0,2.17-4.33s0,0,0-.05a4.76,4.76,0,0,1,1.91-2.65,4.43,4.43,0,0,1,3.28-.75A3.19,3.19,0,0,1,12,27.77,3.94,3.94,0,0,1,11.22,32.6Zm2.59-5.78a3.73,3.73,0,0,0-.92-1.1,23.6,23.6,0,0,1,3.11-5l3.25,3.1A24.53,24.53,0,0,1,13.81,26.82Zm7.11-4.22-3.67-3.51c.64-.78,1.32-1.59,2.06-2.42l4.14,4C22.58,21.35,21.73,22,20.92,22.6Zm15.15-15a36.08,36.08,0,0,1-6.29,7.45c-1.64,1.57-3.24,3-4.75,4.29l-4.36-4.17c1.38-1.5,2.89-3,4.48-4.55,3.92-3.75,4.52-3.68,7.9-5.91C37.2,2,38.64,2,38.91,2,39,2.26,39,3.63,36.07,7.6ZM10.35,29.93a1.05,1.05,0,0,0-1.41.39.64.64,0,0,1-.1.13,5.1,5.1,0,0,1-.6.5A4,4,0,0,1,7,31.53a1,1,0,0,0-.74,1.21,1,1,0,0,0,1,.74l.27,0a6.31,6.31,0,0,0,2-.89,10.77,10.77,0,0,0,.92-.76,2.9,2.9,0,0,0,.39-.53A1,1,0,0,0,10.35,29.93Z"/></g></g></svg>