<svg xmlns="http://www.w3.org/2000/svg" viewBox="0 0 36 36"><defs><style>.cls-1{fill:#0361f2;}</style></defs><title>web</title><g id="Слой_2" data-name="Слой 2"><g id="Слой_1-2" data-name="Слой 1"><path class="cls-1" d="M35,23.92a18,18,0,0,0,0-11.84l-.06-.16a18,18,0,0,0-33.88,0L1,12.08A18,18,0,0,0,1,23.92l.06.16a18,18,0,0,0,33.88,0Zm-17,9.5c-.69,0-1.79-1.24-2.71-4a28,28,0,0,1-1.07-4.55h7.56a28,28,0,0,1-1.07,4.55C19.79,32.18,18.69,33.42,18,33.42ZM13.91,22.28c-.12-1.38-.19-2.81-.19-4.28s.07-2.91.19-4.28h8.18c.12,1.37.19,2.81.19,4.28s-.07,2.9-.19,4.28ZM2.58,18a15.47,15.47,0,0,1,.6-4.28h8.14c-.12,1.4-.18,2.84-.18,4.28s.06,2.88.18,4.28H3.18A15.53,15.53,0,0,1,2.58,18ZM18,2.58c.69,0,1.79,1.24,2.71,4a28,28,0,0,1,1.07,4.55H14.22a29.07,29.07,0,0,1,1.06-4.55C16.21,3.82,17.31,2.58,18,2.58Zm6.68,11.14h8.13a15.32,15.32,0,0,1,0,8.56H24.68c.12-1.4.18-2.84.18-4.28S24.8,15.12,24.68,13.72Zm7.13-2.58H24.38a24.59,24.59,0,0,0-2.35-8A15.5,15.5,0,0,1,31.81,11.14ZM14,3.12a24.59,24.59,0,0,0-2.35,8H4.19A15.5,15.5,0,0,1,14,3.12ZM4.19,24.86h7.43a24.67,24.67,0,0,0,2.35,8A15.5,15.5,0,0,1,4.19,24.86Zm17.84,8a24.67,24.67,0,0,0,2.35-8h7.43A15.5,15.5,0,0,1,22,32.88Z"/></g></g></svg>